<svg width="69" height="69" viewBox="0 0 69 69" fill="none" xmlns="http://www.w3.org/2000/svg">
<path d="M33.1636 36.7987C28.3497 27.0371 15.9137 9.43942 4.68109 17.1417C-6.55147 24.8441 16.2606 44.9302 20.6733 46.5348C25.0861 48.1395 27.4449 43.7911 22.7334 39.2057C16.6617 33.2965 9.09388 56.8568 17.5183 60.8685C24.2578 64.0778 34.714 46.936 35.1695 43.6185C35.6249 40.3009 33.1636 36.7987 33.1636 36.7987Z" stroke="black" stroke-width="3"/>
<path d="M35.7597 35.1941C40.5736 25.4325 53.0097 7.8348 64.2422 15.5371C75.4748 23.2395 52.6628 43.3256 48.25 44.9302C43.8372 46.5349 41.4784 42.1865 46.1899 37.6011C52.2616 31.6919 59.8295 55.2522 51.405 59.2639C44.6655 62.4732 34.2093 45.3314 33.7539 42.0139C33.2985 38.6963 35.7597 35.1941 35.7597 35.1941Z" stroke="black" stroke-width="3"/>
</svg>
