<svg width="69" height="69" viewBox="0 0 69 69" fill="none" xmlns="http://www.w3.org/2000/svg">
<g clip-path="url(#clip0_60_1774)">
<path d="M52.0195 30.9961C53.5081 30.9961 54.7148 29.7894 54.7148 28.3008C54.7148 26.8122 53.5081 25.6055 52.0195 25.6055C50.531 25.6055 49.3242 26.8122 49.3242 28.3008C49.3242 29.7894 50.531 30.9961 52.0195 30.9961Z" fill="black"/>
<path d="M40.2949 30.9961C41.7835 30.9961 42.9902 29.7894 42.9902 28.3008C42.9902 26.8122 41.7835 25.6055 40.2949 25.6055C38.8063 25.6055 37.5996 26.8122 37.5996 28.3008C37.5996 29.7894 38.8063 30.9961 40.2949 30.9961Z" fill="black"/>
<path d="M16.8457 54.4453C18.3343 54.4453 19.541 53.2386 19.541 51.75C19.541 50.2614 18.3343 49.0547 16.8457 49.0547C15.3571 49.0547 14.1504 50.2614 14.1504 51.75C14.1504 53.2386 15.3571 54.4453 16.8457 54.4453Z" fill="black"/>
<path d="M16.8457 30.9961C18.3343 30.9961 19.541 29.7894 19.541 28.3008C19.541 26.8122 18.3343 25.6055 16.8457 25.6055C15.3571 25.6055 14.1504 26.8122 14.1504 28.3008C14.1504 29.7894 15.3571 30.9961 16.8457 30.9961Z" fill="black"/>
<path d="M16.8457 42.7207C18.3343 42.7207 19.541 41.514 19.541 40.0254C19.541 38.5368 18.3343 37.3301 16.8457 37.3301C15.3571 37.3301 14.1504 38.5368 14.1504 40.0254C14.1504 41.514 15.3571 42.7207 16.8457 42.7207Z" fill="black"/>
<path d="M28.5703 42.7207C30.0589 42.7207 31.2656 41.514 31.2656 40.0254C31.2656 38.5368 30.0589 37.3301 28.5703 37.3301C27.0817 37.3301 25.875 38.5368 25.875 40.0254C25.875 41.514 27.0817 42.7207 28.5703 42.7207Z" fill="black"/>
<path d="M28.5703 30.9961C30.0589 30.9961 31.2656 29.7894 31.2656 28.3008C31.2656 26.8122 30.0589 25.6055 28.5703 25.6055C27.0817 25.6055 25.875 26.8122 25.875 28.3008C25.875 29.7894 27.0817 30.9961 28.5703 30.9961Z" fill="black"/>
<path d="M28.5703 54.4453C30.0589 54.4453 31.2656 53.2386 31.2656 51.75C31.2656 50.2614 30.0589 49.0547 28.5703 49.0547C27.0817 49.0547 25.875 50.2614 25.875 51.75C25.875 53.2386 27.0817 54.4453 28.5703 54.4453Z" fill="black"/>
<rect x="39.6945" y="39.0555" width="13.25" height="13.25" rx="4" stroke="black" stroke-width="4"/>
<rect x="2" y="7.11108" width="65" height="59.8889" rx="14" stroke="black" stroke-width="4"/>
<line x1="16.0555" y1="2" x2="16.0555" y2="12.0556" stroke="black" stroke-width="4" stroke-linecap="round"/>
<line x1="35.2222" y1="2" x2="35.2222" y2="12.0556" stroke="black" stroke-width="4" stroke-linecap="round"/>
<line x1="53.1111" y1="2" x2="53.1111" y2="12.0556" stroke="black" stroke-width="4" stroke-linecap="round"/>
</g>
<defs>
<clipPath id="clip0_60_1774">
<rect width="69" height="69" fill="white"/>
</clipPath>
</defs>
</svg>
