<svg width="58" height="58" viewBox="0 0 58 58" fill="none" xmlns="http://www.w3.org/2000/svg">
<g clip-path="url(#clip0_60_2234)">
<path d="M29 58C44.9898 58 58 44.9909 58 29C58 26.24 57.6147 23.52 56.8518 20.9151C56.476 19.6342 55.1385 18.8985 53.854 19.2743C52.5719 19.649 51.8386 20.9913 52.2132 22.2722C52.8451 24.4363 53.1667 26.7007 53.1667 29C53.1667 42.3253 42.3253 53.1667 29 53.1667C15.6747 53.1667 4.83333 42.3253 4.83333 29C4.83333 15.6747 15.6747 4.83333 29 4.83333C33.8428 4.83333 38.5021 6.24935 42.474 8.92739C43.5797 9.67375 45.083 9.38051 45.8282 8.27484C46.5739 7.16799 46.2831 5.66583 45.1762 4.92006C40.4031 1.70158 34.8098 0 29 0C13.0102 0 0 13.0091 0 29C0 44.9909 13.0102 58 29 58V58Z" fill="black"/>
<path d="M53.8747 5.54155L29 30.415L21.042 22.4582C20.098 21.5148 18.5687 21.5148 17.6247 22.4582C16.6813 23.4022 16.6813 24.9315 17.6247 25.8755L27.2913 35.5422C27.7639 36.0148 28.3811 36.2502 29 36.2502C29.6189 36.2502 30.2361 36.0148 30.7087 35.5422L57.292 8.95887C58.2354 8.01486 58.2354 6.48556 57.292 5.54155C56.348 4.59813 54.8187 4.59813 53.8747 5.54155Z" fill="#DDD0A4"/>
</g>
<defs>
<clipPath id="clip0_60_2234">
<rect width="58" height="58" fill="white"/>
</clipPath>
</defs>
</svg>
