<svg width="58" height="58" viewBox="0 0 58 58" fill="none" xmlns="http://www.w3.org/2000/svg">
<g clip-path="url(#clip0_60_2248)">
<path d="M50.592 14.0913L36.9986 0.497871C36.6813 0.180457 36.2482 0 35.7969 0H12.0078C9.19696 0 6.91016 2.28681 6.91016 5.09766V52.9023C6.91016 55.7132 9.19696 58 12.0078 58H45.9922C48.803 58 51.0898 55.7132 51.0898 52.9023V15.293C51.0898 14.8296 50.8953 14.3945 50.592 14.0913ZM37.4961 5.80147L45.2884 13.5938H39.1953C38.2584 13.5938 37.4961 12.8315 37.4961 11.8945V5.80147ZM45.9922 54.6016H12.0078C11.0709 54.6016 10.3086 53.8393 10.3086 52.9023V5.09766C10.3086 4.16071 11.0709 3.39844 12.0078 3.39844H34.0977V11.8945C34.0977 14.7054 36.3845 16.9922 39.1953 16.9922H47.6914V52.9023C47.6914 53.8393 46.9291 54.6016 45.9922 54.6016Z" fill="black"/>
<path d="M39.1953 24.0156H18.8047C17.8663 24.0156 17.1055 24.7764 17.1055 25.7148C17.1055 26.6533 17.8663 27.4141 18.8047 27.4141H39.1953C40.1337 27.4141 40.8945 26.6533 40.8945 25.7148C40.8945 24.7764 40.1337 24.0156 39.1953 24.0156Z" fill="#DDD0A4"/>
<path d="M39.1953 30.8125H18.8047C17.8663 30.8125 17.1055 31.5733 17.1055 32.5117C17.1055 33.4501 17.8663 34.2109 18.8047 34.2109H39.1953C40.1337 34.2109 40.8945 33.4501 40.8945 32.5117C40.8945 31.5733 40.1337 30.8125 39.1953 30.8125Z" fill="#DDD0A4"/>
<path d="M39.1953 37.6094H18.8047C17.8663 37.6094 17.1055 38.3702 17.1055 39.3086C17.1055 40.247 17.8663 41.0078 18.8047 41.0078H39.1953C40.1337 41.0078 40.8945 40.247 40.8945 39.3086C40.8945 38.3702 40.1337 37.6094 39.1953 37.6094Z" fill="#DDD0A4"/>
<path d="M32.3984 44.4062H18.8047C17.8663 44.4062 17.1055 45.167 17.1055 46.1055C17.1055 47.0439 17.8663 47.8047 18.8047 47.8047H32.3984C33.3369 47.8047 34.0977 47.0439 34.0977 46.1055C34.0977 45.167 33.3369 44.4062 32.3984 44.4062Z" fill="#DDD0A4"/>
</g>
<defs>
<clipPath id="clip0_60_2248">
<rect width="58" height="58" fill="white"/>
</clipPath>
</defs>
</svg>
