<svg width="625" height="574" viewBox="0 0 625 574" fill="none" xmlns="http://www.w3.org/2000/svg">
<path opacity="0.8" d="M300.736 79.8299C341.92 47.3085 479.487 83.7777 516.075 115.903C561.492 155.808 574.151 199.02 552.478 256.872C534.347 305.124 405.742 360.371 367.897 397.333C288.72 474.691 198.028 461.242 103.139 392.903C63.9749 359.513 33.0387 267.812 222.603 168.133C269.124 145.916 264.808 108.196 300.736 79.8299Z" fill="#A89060"/>
<path d="M312 573.152C477.335 573.152 611.366 565.327 611.366 555.674C611.366 546.021 477.335 538.196 312 538.196C146.665 538.196 12.6338 546.021 12.6338 555.674C12.6338 565.327 146.665 573.152 312 573.152Z" fill="#F5F5F5"/>
<path d="M225.644 92.4279C227.188 85.9277 243.338 79.7517 257.234 89.3399C263.394 93.5111 268.015 99.5892 270.385 106.641C272.756 113.692 272.747 121.327 270.358 128.372C262.901 150.451 301.825 149.633 310.842 186.859C317.96 216.195 311.367 257.744 271.64 255.49C211.007 252.047 216.241 192.788 213.585 161.645C210.93 130.503 177.842 95.5777 225.644 92.4279Z" fill="#263238"/>
<path d="M205.618 175.573C205.356 180.081 204.831 184.203 204.244 188.48C203.657 192.757 202.839 196.941 201.928 201.141C201.017 205.341 199.983 209.541 198.67 213.678C197.403 217.878 195.897 222.002 194.162 226.03L192.803 229.118C192.602 229.566 192.232 230.246 191.954 230.817C191.676 231.388 191.305 231.913 190.981 232.469C189.711 234.449 188.297 236.332 186.751 238.105C183.874 241.397 180.779 244.492 177.487 247.369C171.104 253.01 164.313 258.171 157.168 262.809L153.061 257.312C155.963 254.502 158.928 251.599 161.784 248.696C164.641 245.794 167.466 242.845 170.153 239.849C172.8 236.945 175.299 233.91 177.641 230.755C178.712 229.278 179.681 227.73 180.544 226.123C180.714 225.768 180.93 225.397 181.069 225.058C181.208 224.718 181.362 224.44 181.532 223.931L182.582 221.213C185.231 213.752 187.296 206.097 188.758 198.316C189.545 194.394 190.117 190.41 190.703 186.442C191.29 182.474 191.738 178.383 192.077 174.615L205.618 175.573Z" fill="#FFB573"/>
<path d="M196.354 159.361C190.873 160.75 187.09 183.323 187.09 183.323L208.073 197.59C208.073 197.59 216.704 170.832 212.474 164.795C208.027 158.496 204.352 157.322 196.354 159.361Z" fill="#4A607A"/>
<path opacity="0.2" d="M196.848 164.394L192.633 187.152L201.125 192.911L196.848 164.394Z" fill="black"/>
<path d="M155.562 255.428L141.434 257.682L149.494 266.607C149.494 266.607 157.816 264.708 159.283 259.381L155.562 255.428Z" fill="#FFB573"/>
<path d="M134.749 259.458L142.808 268.181L149.494 266.606L141.434 257.682L134.749 259.458Z" fill="#FFB573"/>
<path d="M226.03 539.246H212.721L211.825 508.428H225.134L226.03 539.246Z" fill="#FFB573"/>
<path d="M266.11 539.901L252.8 539.893L248.547 509.073L261.856 509.082L266.11 539.901Z" fill="#FFB573"/>
<path d="M251.359 537.301L266.136 535.108C266.392 535.064 266.655 535.115 266.876 535.252C267.096 535.388 267.259 535.6 267.335 535.848L270.771 547.264C270.839 547.552 270.848 547.851 270.795 548.143C270.743 548.434 270.631 548.712 270.466 548.957C270.301 549.203 270.087 549.412 269.837 549.572C269.588 549.731 269.308 549.837 269.015 549.882C263.852 550.555 261.322 550.621 254.817 551.596C250.819 552.195 240.567 555.64 235.041 556.465C229.515 557.29 228.414 551.868 230.6 551.011C237.778 548.419 244.193 544.07 249.257 538.36C249.818 537.779 250.558 537.406 251.359 537.301Z" fill="#263238"/>
<path d="M212.258 537.718H227.219C227.473 537.711 227.721 537.799 227.915 537.965C228.109 538.13 228.235 538.361 228.269 538.613L229.983 550.456C230.013 550.754 229.98 551.055 229.887 551.34C229.794 551.625 229.642 551.887 229.441 552.109C229.24 552.332 228.995 552.51 228.722 552.632C228.448 552.754 228.152 552.817 227.852 552.818C222.633 552.725 220.132 552.417 213.539 552.417C209.494 552.417 201.187 552.833 195.551 552.833C189.916 552.833 189.669 547.321 191.985 546.812C202.422 544.573 206.529 541.485 210.034 538.536C210.655 538.009 211.443 537.719 212.258 537.718V537.718Z" fill="#263238"/>
<g opacity="0.2">
<path opacity="0.2" d="M211.841 508.443L212.288 524.331H225.598L225.15 508.443H211.841Z" fill="black"/>
<path opacity="0.2" d="M260.128 508.37L246.88 509.796L250.787 525.364L264.019 523.934L260.128 508.37Z" fill="black"/>
</g>
<path d="M196.354 159.36C196.354 159.36 190.008 161.584 202.716 239.648H256.756C255.845 217.646 255.829 204.136 266.344 158.944C258.776 157.357 251.103 156.325 243.385 155.856C235.217 155.268 227.018 155.268 218.85 155.856C208.305 156.952 196.354 159.36 196.354 159.36Z" fill="#4A607A"/>
<path opacity="0.2" d="M261.882 176.838C256.987 178.058 252.463 183.4 253.004 193.236C253.308 197.697 254.871 201.98 257.512 205.588C258.377 198.022 259.828 189.237 262.144 177.996L261.882 176.838Z" fill="black"/>
<path d="M221.691 177.533C221.691 177.533 228.717 181.872 230.554 188.341C238.181 182.752 248.542 167.204 248.958 157.894C248.96 157.623 248.909 157.354 248.807 157.103C248.704 156.852 248.553 156.624 248.362 156.432C248.172 156.239 247.945 156.087 247.694 155.983C247.444 155.878 247.176 155.825 246.905 155.825C245.729 155.795 244.553 155.846 243.385 155.979L221.691 177.533Z" fill="#FAFAFA"/>
<path d="M221.691 177.533C221.691 177.533 214.666 181.872 212.829 188.341C204.63 182.335 209.185 162.51 213.879 155.917C215.531 155.743 217.198 155.743 218.85 155.917L221.691 177.533Z" fill="#FAFAFA"/>
<path d="M240.976 128.311C239.432 136.2 237.888 150.668 243.4 155.948C238.279 165 230.777 172.476 221.707 177.564C210.76 168.825 218.866 155.948 218.866 155.948C227.667 153.848 227.435 147.302 225.907 141.172L240.976 128.311Z" fill="#FFB573"/>
<path opacity="0.2" d="M234.8 133.56L225.876 141.172C226.261 142.597 226.514 144.055 226.632 145.526C229.998 145.032 235.294 142.176 236.02 138.516C236.344 136.787 235.109 134.378 234.8 133.56Z" fill="black"/>
<path d="M254.193 115.619C250.549 128.31 249.267 133.761 241.3 138.933C229.319 146.653 214.527 139.427 214.311 125.902C214.11 113.72 220.116 95.0217 233.858 92.6902C236.884 92.1619 239.995 92.4165 242.894 93.4298C245.794 94.4431 248.386 96.1815 250.424 98.4796C252.462 100.778 253.878 103.559 254.538 106.559C255.198 109.559 255.079 112.678 254.193 115.619Z" fill="#FFB573"/>
<path d="M226.787 93.8175C227.389 98.1098 250.888 111.913 255.351 104.718C259.813 97.5231 253.39 92.1036 243.385 90.7295C237.662 89.831 231.804 90.9209 226.787 93.8175V93.8175Z" fill="#263238"/>
<path d="M242.103 96.1489C239.216 99.9472 245.33 127.307 254.084 124.728C262.839 122.15 262.437 113.395 256.354 105.32C252.912 100.595 247.83 97.3243 242.103 96.1489Z" fill="#263238"/>
<path d="M202.715 239.679C202.715 239.679 192.216 342.232 193.112 382.762C194.023 424.975 209.494 521.258 209.494 521.258H227.481C227.481 521.258 224.64 427.445 226.231 385.989C227.96 340.796 242.319 239.679 242.319 239.679H202.715Z" fill="#DDD0A4"/>
<path d="M257.42 238.784C257.42 238.784 267.919 341.336 267.023 381.866C266.112 424.079 266.081 520.363 266.081 520.363H248.094C248.094 520.363 237.888 427.152 233.904 385.093C229.552 339.144 217.816 238.784 217.816 238.784H257.42Z" fill="#DDD0A4"/>
<path d="M229.01 521.891H207.904L206.36 515.16L229.998 514.341L229.01 521.891Z" fill="#263238"/>
<path opacity="0.2" d="M225.804 268.291C212.526 294.987 223.133 343.7 227.827 361.827C230.236 334.606 234.296 301.333 237.461 276.906C235.439 263.072 231.919 255.97 225.804 268.291Z" fill="black"/>
<path d="M267.782 522.852L245.269 522.831L242.874 515.761L269.362 514.59L267.782 522.852Z" fill="#263238"/>
<path d="M67.4458 104.085C53.9996 115.986 44.3842 131.606 39.8157 148.972C35.2472 166.337 35.9308 184.667 41.7799 201.644C47.6291 218.62 58.3811 233.481 72.6763 244.347C86.9716 255.213 104.168 261.596 122.091 262.689C140.014 263.782 157.858 259.535 173.368 250.486C188.877 241.437 201.355 227.992 209.223 211.852C217.091 195.711 219.996 177.6 217.571 159.808C215.145 142.017 207.499 125.344 195.598 111.898C179.637 93.8719 157.171 82.9226 133.139 81.4575C109.108 79.9924 85.4778 88.1315 67.4458 104.085V104.085ZM178.259 229.304C166.94 239.318 152.906 245.751 137.931 247.79C122.956 249.828 107.713 247.38 94.1299 240.756C80.5463 234.131 69.2322 223.627 61.6182 210.572C54.0042 197.518 50.4324 182.498 51.3544 167.413C52.2765 152.329 57.6509 137.856 66.7981 125.826C75.9453 113.796 88.4545 104.748 102.744 99.827C117.033 94.906 132.461 94.3328 147.076 98.1799C161.691 102.027 174.837 110.121 184.852 121.44C191.501 128.955 196.606 137.706 199.873 147.194C203.14 156.682 204.507 166.721 203.895 176.737C203.283 186.753 200.704 196.551 196.305 205.57C191.906 214.589 185.774 222.654 178.259 229.304V229.304Z" fill="#263238"/>
<path opacity="0.3" d="M123.354 241.98C109.524 241.148 96.2523 236.232 85.2167 227.856C74.1811 219.479 65.878 208.018 61.3576 194.921C56.8372 181.825 56.3027 167.682 59.8217 154.282C63.3408 140.881 70.7553 128.826 81.1271 119.64C91.499 110.455 104.362 104.552 118.09 102.678C131.817 100.804 145.792 103.044 158.246 109.115C170.7 115.185 181.074 124.812 188.055 136.78C195.036 148.747 198.312 162.516 197.466 176.344C196.329 194.871 187.886 212.19 173.99 224.496C160.094 236.802 141.883 243.091 123.354 241.98V241.98Z" fill="#4A607A"/>
<g opacity="0.5">
<path opacity="0.5" d="M131.877 102.17H130.565L57.8112 166.555L57.7186 167.868C56.7747 183.049 60.8195 198.122 69.2368 210.791L173.04 118.815C161.498 108.931 147.044 103.087 131.877 102.17V102.17Z" fill="#FAFAFA"/>
<path opacity="0.5" d="M179.818 125.392L74.9342 218.202C78.437 222.247 82.3953 225.874 86.7304 229.01L189.036 138.423C186.47 133.742 183.377 129.37 179.818 125.392V125.392Z" fill="#FAFAFA"/>
</g>
<path d="M199.056 240.745L187.106 251.321C186.237 252.088 185.099 252.48 183.941 252.411C182.784 252.341 181.701 251.816 180.93 250.951V250.951C180.17 250.078 179.783 248.942 179.853 247.787C179.922 246.632 180.442 245.55 181.3 244.775L193.251 234.198C194.122 233.433 195.261 233.044 196.419 233.116C197.576 233.188 198.658 233.716 199.427 234.584V234.584C200.193 235.451 200.585 236.586 200.515 237.741C200.446 238.896 199.921 239.976 199.056 240.745V240.745Z" fill="#263238"/>
<path d="M194.656 238.784C203.657 246.704 212.273 254.98 220.78 263.364C229.288 271.748 237.595 280.348 245.809 288.902C254.023 297.456 262.082 306.287 270.08 315.15C277.584 324.414 287.805 331.269 289.334 345.814C289.454 346.977 289.295 348.152 288.87 349.241C288.445 350.331 287.768 351.304 286.892 352.079C286.017 352.855 284.97 353.411 283.837 353.701C282.705 353.992 281.519 354.008 280.379 353.75C266.112 350.461 260.569 339.483 252.293 330.899C244.491 321.892 236.802 312.803 229.226 303.632C221.65 294.46 214.213 285.14 206.915 275.67C199.628 266.22 192.463 256.663 185.685 246.766C184.815 245.554 184.425 244.063 184.59 242.58C184.754 241.097 185.462 239.728 186.577 238.736C187.691 237.744 189.133 237.2 190.625 237.209C192.117 237.218 193.553 237.779 194.656 238.784Z" fill="#263238"/>
<path d="M232.916 114.476C232.685 115.526 231.944 116.252 231.249 116.02C230.554 115.789 230.199 114.893 230.43 113.859C230.662 112.824 231.403 112.083 232.098 112.315C232.793 112.546 233.148 113.426 232.916 114.476Z" fill="#263238"/>
<path d="M221.074 111.852C220.842 112.901 220.086 113.627 219.406 113.473C218.727 113.318 218.356 112.346 218.588 111.296C218.82 110.246 219.561 109.52 220.256 109.675C220.95 109.829 221.306 110.802 221.074 111.852Z" fill="#263238"/>
<path d="M220.549 109.798L218.187 108.517C218.187 108.517 219.036 110.771 220.549 109.798Z" fill="#263238"/>
<path d="M224.301 114.554C222.836 116.733 221.08 118.702 219.082 120.405C219.531 120.908 220.084 121.306 220.703 121.573C221.321 121.84 221.991 121.968 222.664 121.949L224.301 114.554Z" fill="#ED893E"/>
<path d="M227.466 127.307C226.946 127.27 226.43 127.193 225.922 127.075C225.882 127.066 225.845 127.049 225.812 127.026C225.779 127.002 225.751 126.972 225.729 126.938C225.708 126.904 225.693 126.865 225.687 126.825C225.68 126.785 225.681 126.744 225.69 126.705C225.699 126.665 225.716 126.628 225.74 126.595C225.763 126.562 225.793 126.534 225.828 126.512C225.862 126.491 225.9 126.476 225.94 126.469C225.98 126.463 226.021 126.464 226.061 126.473C227.359 126.788 228.712 126.794 230.013 126.491C231.313 126.188 232.524 125.585 233.549 124.728C233.575 124.688 233.61 124.653 233.652 124.627C233.693 124.602 233.739 124.586 233.787 124.581C233.836 124.575 233.884 124.581 233.93 124.597C233.976 124.613 234.018 124.639 234.052 124.674C234.086 124.708 234.112 124.749 234.128 124.795C234.145 124.841 234.15 124.89 234.145 124.938C234.14 124.986 234.124 125.033 234.098 125.074C234.072 125.115 234.038 125.15 233.997 125.176C233.104 125.946 232.066 126.531 230.945 126.896C229.824 127.262 228.641 127.402 227.466 127.307Z" fill="#263238"/>
<path d="M255.042 128.28C254.33 129.33 253.419 130.229 252.359 130.926C251.299 131.623 250.112 132.103 248.866 132.34C245.531 132.958 244.234 129.901 245.361 126.921C246.411 124.234 249.437 120.745 252.649 121.424C253.348 121.598 253.993 121.943 254.525 122.429C255.058 122.914 255.461 123.525 255.699 124.205C255.936 124.885 256.001 125.614 255.886 126.325C255.771 127.037 255.481 127.708 255.042 128.28V128.28Z" fill="#FFB573"/>
<path d="M237.888 109.86C237.762 109.898 237.628 109.896 237.504 109.855C237.379 109.813 237.271 109.734 237.193 109.628C235.479 107.266 231.712 107.297 231.681 107.297C231.513 107.297 231.352 107.23 231.233 107.111C231.115 106.993 231.048 106.832 231.048 106.664C231.046 106.581 231.06 106.499 231.091 106.423C231.121 106.346 231.166 106.276 231.223 106.217C231.281 106.158 231.35 106.111 231.426 106.079C231.502 106.047 231.583 106.031 231.666 106.031C231.851 106.031 236.112 106.031 238.212 108.887C238.31 109.023 238.35 109.191 238.324 109.356C238.298 109.521 238.208 109.668 238.073 109.767L237.888 109.86Z" fill="#263238"/>
<path d="M218.604 103.174C218.494 103.166 218.389 103.131 218.297 103.072C218.206 103.013 218.13 102.931 218.079 102.835C218.003 102.685 217.99 102.512 218.042 102.353C218.094 102.193 218.207 102.061 218.357 101.985C219.239 101.512 220.222 101.255 221.223 101.236C222.224 101.218 223.216 101.437 224.116 101.877C224.258 101.964 224.361 102.102 224.405 102.263C224.448 102.424 224.427 102.596 224.347 102.742C224.263 102.887 224.125 102.993 223.963 103.037C223.801 103.08 223.628 103.057 223.483 102.974C222.766 102.636 221.98 102.472 221.188 102.496C220.397 102.52 219.622 102.732 218.928 103.113C218.825 103.155 218.715 103.176 218.604 103.174V103.174Z" fill="#263238"/>
<path d="M244.716 540.038L244.531 539.962C244.28 539.786 244.079 539.548 243.947 539.272C243.815 538.996 243.755 538.69 243.775 538.385C243.759 538.194 243.796 538.003 243.88 537.832C243.965 537.661 244.095 537.516 244.256 537.414C245.682 536.496 250.076 538.478 250.565 538.711C250.623 538.732 250.673 538.773 250.705 538.825C250.738 538.878 250.753 538.94 250.746 539.002C250.743 539.064 250.723 539.123 250.687 539.174C250.652 539.224 250.603 539.264 250.546 539.287C249.001 539.923 246.169 540.849 244.716 540.038ZM249.657 538.973C247.87 538.242 245.402 537.466 244.656 537.944C244.589 537.996 244.538 538.064 244.506 538.142C244.474 538.219 244.463 538.304 244.474 538.387C244.459 538.591 244.495 538.795 244.579 538.981C244.664 539.167 244.793 539.329 244.956 539.452C245.695 539.971 247.431 539.764 249.657 538.973V538.973Z" fill="#4A607A"/>
<path d="M249.899 539.073C248.446 538.262 246.115 536.09 246.235 534.737C246.248 534.487 246.347 534.249 246.514 534.063C246.681 533.876 246.908 533.753 247.155 533.713C247.387 533.645 247.631 533.63 247.869 533.667C248.107 533.704 248.335 533.793 248.535 533.927C250.153 534.989 250.736 538.782 250.769 538.945C250.772 538.999 250.764 539.052 250.743 539.102C250.723 539.151 250.692 539.195 250.652 539.231C250.607 539.264 250.555 539.285 250.499 539.291C250.444 539.298 250.388 539.29 250.336 539.269C250.185 539.217 250.039 539.152 249.899 539.073V539.073ZM248.122 534.408C247.878 534.275 247.593 534.242 247.325 534.316C246.932 534.422 246.87 534.613 246.874 534.765C246.827 535.697 248.626 537.618 250.031 538.426C249.777 537.171 249.163 535.085 248.201 534.458L248.122 534.408Z" fill="#4A607A"/>
<path d="M207.27 540.033C206.133 540.141 204.993 539.852 204.043 539.215C203.827 539.025 203.662 538.785 203.562 538.515C203.463 538.246 203.432 537.956 203.472 537.671C203.479 537.498 203.531 537.33 203.623 537.184C203.715 537.038 203.844 536.918 203.997 536.837C205.634 535.926 210.945 538.644 211.532 538.953C211.589 538.983 211.637 539.031 211.667 539.088C211.697 539.146 211.709 539.212 211.702 539.277C211.696 539.342 211.668 539.403 211.623 539.45C211.578 539.498 211.519 539.529 211.455 539.539C210.079 539.838 208.678 540.003 207.27 540.033V540.033ZM204.893 537.285C204.691 537.273 204.49 537.31 204.306 537.393C204.245 537.428 204.194 537.477 204.156 537.536C204.118 537.595 204.096 537.663 204.09 537.733C204.066 537.92 204.088 538.11 204.152 538.287C204.217 538.464 204.322 538.624 204.46 538.752C205.263 539.478 207.456 539.601 210.405 539.107C208.683 538.194 206.819 537.578 204.893 537.285V537.285Z" fill="#4A607A"/>
<path d="M211.393 539.571H211.269C209.725 538.86 206.545 535.988 206.792 534.475C206.792 534.12 207.101 533.672 207.965 533.58C208.279 533.546 208.596 533.578 208.896 533.674C209.197 533.77 209.474 533.927 209.71 534.136C211.393 535.525 211.702 539.107 211.702 539.262C211.71 539.315 211.703 539.37 211.681 539.419C211.66 539.468 211.624 539.51 211.578 539.54C211.522 539.57 211.456 539.581 211.393 539.571ZM208.228 534.167H208.027C207.456 534.167 207.425 534.46 207.41 534.537C207.255 535.433 209.386 537.702 211.007 538.675C210.882 537.163 210.289 535.727 209.309 534.568C209.014 534.3 208.626 534.156 208.228 534.167Z" fill="#4A607A"/>
<path d="M232.391 112.438L230.029 111.141C230.029 111.141 230.878 113.395 232.391 112.438Z" fill="#263238"/>
<path d="M257.574 236.499L258.948 241.331C259.133 241.717 258.701 242.103 258.068 242.103H202.376C201.897 242.103 201.496 241.856 201.465 241.547L200.971 236.715C200.971 236.375 201.357 236.097 201.897 236.097H256.632C256.811 236.07 256.994 236.093 257.16 236.164C257.327 236.235 257.47 236.351 257.574 236.499V236.499Z" fill="#4A607A"/>
<path opacity="0.2" d="M257.574 236.499L258.948 241.331C259.133 241.717 258.701 242.103 258.068 242.103H202.376C201.897 242.103 201.496 241.856 201.465 241.547L200.971 236.715C200.971 236.375 201.357 236.097 201.897 236.097H256.632C256.811 236.07 256.994 236.093 257.16 236.164C257.327 236.235 257.47 236.351 257.574 236.499V236.499Z" fill="black"/>
<path d="M250.039 242.613H251.506C251.799 242.613 252.015 242.474 252 242.289L251.305 236.005C251.305 235.819 251.027 235.665 250.749 235.665H249.205C248.912 235.665 248.68 235.819 248.711 236.005L249.391 242.289C249.483 242.474 249.746 242.613 250.039 242.613Z" fill="#4A607A"/>
<path opacity="0.4" d="M250.039 242.613H251.506C251.799 242.613 252.015 242.474 252 242.289L251.305 236.005C251.305 235.819 251.027 235.665 250.749 235.665H249.205C248.912 235.665 248.68 235.819 248.711 236.005L249.391 242.289C249.483 242.474 249.746 242.613 250.039 242.613Z" fill="white"/>
<path d="M206.56 242.613H208.027C208.32 242.613 208.537 242.474 208.521 242.289L207.842 236.005C207.842 235.819 207.564 235.665 207.27 235.665H205.804C205.51 235.665 205.294 235.819 205.31 236.005L205.989 242.289C206.02 242.474 206.267 242.613 206.56 242.613Z" fill="#4A607A"/>
<path opacity="0.4" d="M206.56 242.613H208.027C208.32 242.613 208.537 242.474 208.521 242.289L207.842 236.005C207.842 235.819 207.564 235.665 207.27 235.665H205.804C205.51 235.665 205.294 235.819 205.31 236.005L205.989 242.289C206.02 242.474 206.267 242.613 206.56 242.613Z" fill="white"/>
<path d="M228.207 242.613H229.751C230.045 242.613 230.261 242.474 230.245 242.289L229.566 236.005C229.566 235.819 229.288 235.665 228.995 235.665H227.528C227.234 235.665 227.018 235.819 227.034 236.005L227.713 242.289C227.667 242.474 227.914 242.613 228.207 242.613Z" fill="#4A607A"/>
<path opacity="0.4" d="M228.207 242.613H229.751C230.045 242.613 230.261 242.474 230.245 242.289L229.566 236.005C229.566 235.819 229.288 235.665 228.995 235.665H227.528C227.234 235.665 227.018 235.819 227.034 236.005L227.713 242.289C227.667 242.474 227.914 242.613 228.207 242.613Z" fill="white"/>
<path d="M224.285 250.457L211.161 244.589L214.898 257.605C214.898 257.605 223.235 259.489 226.864 255.305L224.285 250.457Z" fill="#FFB573"/>
<path d="M272.643 175.001C273.245 179.556 273.724 184.141 274.265 188.696L275.654 202.438C276.148 207.07 276.519 211.594 276.951 216.179L277.522 223.05L277.677 224.78C277.677 224.949 277.677 225.66 277.677 226.154C277.677 226.648 277.677 227.219 277.677 227.698C277.446 229.661 276.821 231.556 275.839 233.272C274.25 235.913 272.15 238.212 269.663 240.034C267.578 241.607 265.368 243.006 263.055 244.218C258.73 246.453 254.233 248.338 249.607 249.854C245.083 251.398 240.544 252.68 235.989 253.822C231.434 254.965 226.879 255.907 222.17 256.632L220.626 250.07C224.872 248.665 229.211 247.229 233.426 245.608C237.641 243.987 241.856 242.397 245.901 240.559C249.883 238.817 253.742 236.805 257.45 234.538C259.16 233.505 260.782 232.333 262.299 231.033C263.488 230.069 264.479 228.884 265.217 227.543C265.378 227.25 265.462 226.921 265.464 226.586C265.464 226.586 265.464 226.586 265.464 226.462C265.464 226.339 265.464 226.462 265.464 226.123L265.217 224.424L264.229 217.584C263.626 212.952 262.947 208.459 262.391 203.889L260.646 190.194C260.152 185.562 259.581 181.053 259.102 176.468L272.643 175.001Z" fill="#FFB573"/>
<path d="M266.344 158.974C271.748 160.611 278.263 179.262 278.263 179.262L259.319 198.763C259.319 198.763 249.591 178.691 251.861 171.712C254.239 164.425 260.168 157.091 266.344 158.974Z" fill="#4A607A"/>
<path d="M200.307 247.291L204.013 258.007L214.898 257.605L211.161 244.589L200.307 247.291Z" fill="#FFB573"/>
</svg>
