<svg width="446" height="389" viewBox="0 0 446 389" fill="none" xmlns="http://www.w3.org/2000/svg">
<path opacity="0.9" d="M47.356 43.9223C120.472 -17.8057 257.911 -20.0672 304.152 74.0573C314.484 94.9853 314.025 119.805 330.361 138.345C343.747 153.499 374.433 153.522 397.898 170.374C442.853 202.668 452.944 283.831 385.982 303.921C337.846 318.375 283.626 276.542 241.827 262.375C191.315 245.236 147.691 264.614 97.4662 253.754C-1.02069 232.401 -28.3316 107.797 47.356 43.9223Z" fill="#4A607A"/>
<path d="M223 388.839C100.069 388.839 0.414276 383.021 0.414276 375.844C0.414276 368.666 100.069 362.848 223 362.848C345.931 362.848 445.586 368.666 445.586 375.844C445.586 383.021 345.931 388.839 223 388.839Z" fill="#193554"/>
<path d="M240.025 107.292C241.678 113.594 243.469 119.817 245.455 126.027C246.419 129.134 247.437 132.238 248.509 135.338C249.565 138.437 250.678 141.525 251.953 144.682L252.262 145.451C252.4 145.796 252.549 146.094 252.699 146.404C252.999 146.976 253.328 147.531 253.686 148.069C254.322 149.008 255.04 149.887 255.833 150.698C257.209 152.091 258.703 153.362 260.298 154.498C263.179 156.517 266.224 158.292 269.402 159.801C275.459 162.695 281.769 165.028 288.252 166.77L290.675 160.456C287.954 158.952 285.13 157.414 282.432 155.795C279.734 154.176 277.036 152.569 274.488 150.847C272.006 149.234 269.639 147.45 267.405 145.509C266.435 144.669 265.543 143.743 264.741 142.742C264.443 142.358 264.174 141.951 263.938 141.525C263.859 141.386 263.794 141.24 263.742 141.089C263.737 141.036 263.737 140.982 263.742 140.928V140.836L263.662 140.561C261.871 134.637 260.218 128.369 258.508 122.193C256.797 116.017 255.064 109.795 253.273 103.641L240.025 107.292Z" fill="#FBCA91"/>
<path d="M237.029 100.599C233.056 108.635 245.765 134.89 245.765 134.89L262.032 128.438C261.513 120.471 259.969 112.603 257.44 105.03C253.319 93.5962 241.437 91.702 237.029 100.599Z" fill="#0D1C41"/>
<path opacity="0.2" d="M236.627 101.621C240.473 100.335 244.376 102.275 247.636 109.657C250.896 117.038 252.848 128.84 252.71 132.192L245.822 134.936C245.822 134.936 233.883 110.541 236.627 101.621Z" fill="black"/>
<path d="M289.067 160.054L295.381 160.203C296.164 160.225 296.934 160.407 297.644 160.738C298.354 161.068 298.988 161.541 299.509 162.126C300.029 162.711 300.424 163.396 300.67 164.139C300.916 164.883 301.007 165.668 300.938 166.448C300.839 167.447 300.479 168.403 299.895 169.219C299.311 170.036 298.524 170.685 297.611 171.102C296.697 171.519 295.691 171.69 294.691 171.596C293.692 171.503 292.734 171.149 291.914 170.57C290.099 169.316 288.438 167.852 286.967 166.207L289.067 160.054Z" fill="#FBCA91"/>
<path d="M290.261 160.043C289.053 162.096 288.09 164.285 287.391 166.563C287.347 166.699 287.256 166.816 287.134 166.891C287.012 166.967 286.867 166.997 286.726 166.976C284.759 166.719 282.863 166.075 281.146 165.082C281.069 165.015 281.013 164.928 280.982 164.831C280.952 164.734 280.949 164.63 280.974 164.531C281.537 162.109 283.901 156.966 285.233 156.943C286.324 156.943 288.976 158.527 290.089 159.239C290.155 159.279 290.212 159.331 290.257 159.394C290.302 159.457 290.334 159.528 290.35 159.603C290.366 159.679 290.366 159.757 290.351 159.832C290.336 159.908 290.305 159.979 290.261 160.043Z" fill="#0D1C41"/>
<path d="M248.819 95.5938C248.819 95.5938 256.361 124.937 239.635 175.839L190.018 169.812C190.603 162.155 199.902 125.58 196.906 88.8091C202.52 88.4166 208.153 88.3897 213.77 88.7287C220.843 89.1732 227.885 90.028 234.859 91.2888C239.617 92.3589 244.284 93.7982 248.819 95.5938Z" fill="#0D1C41"/>
<path d="M226.605 116.327C226.623 116.323 226.64 116.315 226.656 116.304C226.671 116.293 226.684 116.279 226.694 116.263C226.703 116.247 226.71 116.229 226.712 116.21C226.715 116.192 226.713 116.173 226.708 116.154C225.25 110.954 227.569 108.52 231.093 104.812C234.441 101.489 237.301 97.7094 239.589 93.5848C245.397 82.851 239.738 78.5575 235.995 75.7219C235.268 75.2043 234.581 74.6325 233.94 74.0114C233.928 73.9978 233.912 73.9869 233.895 73.9793C233.878 73.9717 233.86 73.9674 233.841 73.9669C233.823 73.9664 233.804 73.9695 233.786 73.9762C233.769 73.9828 233.753 73.9928 233.74 74.0057C233.726 74.0185 233.715 74.0338 233.707 74.0509C233.7 74.0679 233.696 74.0863 233.695 74.1049C233.695 74.1236 233.698 74.1421 233.704 74.1596C233.711 74.177 233.721 74.193 233.734 74.2066C234.381 74.84 235.076 75.4233 235.812 75.9515C239.485 78.7297 244.996 82.9314 239.336 93.447C237.077 97.5589 234.244 101.328 230.921 104.64C227.328 108.405 224.963 110.897 226.467 116.246C226.48 116.271 226.5 116.292 226.524 116.306C226.549 116.321 226.577 116.328 226.605 116.327Z" fill="white"/>
<path d="M218.741 65.2291C219.246 72.1745 219.062 84.7451 213.77 88.7287C220.022 92.392 225.621 97.0709 230.336 102.574C232.804 98.6359 234.801 94.7901 234.859 91.2887C227.512 88.5565 228.384 82.9657 230.347 77.8571L218.741 65.2291Z" fill="#FBCA91"/>
<path opacity="0.2" d="M223.471 70.3837L230.359 77.8457C229.875 79.0363 229.491 80.2651 229.211 81.5193C226.375 80.7502 222.782 77.0881 222.851 74.0229C222.83 72.7819 223.04 71.5478 223.471 70.3837Z" fill="black"/>
<path d="M243.343 44.3012C249.955 48.1011 245.214 63.599 241.908 64.793C235.708 67.0201 235.134 39.5944 243.343 44.3012Z" fill="#0D1C41"/>
<path d="M219.177 54.9202C218.626 64.1731 217.834 69.5687 221.898 74.8495C228.017 82.7936 239.876 79.9581 243.182 71.0496C246.155 63.0136 246.557 49.2376 238.004 44.4963C236.125 43.4346 234.005 42.8722 231.847 42.8628C229.689 42.8535 227.564 43.3975 225.676 44.443C223.787 45.4884 222.199 47.0004 221.061 48.8346C219.923 50.6688 219.275 52.764 219.177 54.9202Z" fill="#FBCA91"/>
<path d="M212.599 46.7923C211.715 52.165 216.043 67.3071 219.969 67.4563C223.895 67.6056 226.019 59.3285 224.998 51.5221C228.706 50.8907 251.333 53.8181 248.463 44.1864C245.811 35.3008 232.574 39.4681 223.54 33.6133C222.851 37.1376 226.777 40.3176 224.825 39.7436C216.789 37.3672 213.46 42.4299 207.846 39.8699C208.089 41.2993 208.64 42.6588 209.461 43.8542C210.282 45.0495 211.352 46.0521 212.599 46.7923Z" fill="#0D1C41"/>
<path d="M213.816 64.5404C214.304 65.5959 214.995 66.5448 215.85 67.3327C216.705 68.1207 217.707 68.7323 218.798 69.1324C221.714 70.1541 223.39 67.5941 222.736 64.7356C222.15 62.1641 219.935 58.5249 216.927 58.743C213.919 58.9612 212.599 61.946 213.816 64.5404Z" fill="#FFDBB1"/>
<path d="M239.623 175.816C239.623 175.816 257.291 234.467 259.369 262.903C261.527 292.487 268.725 367.28 268.725 367.28L261.469 369.461C261.469 369.461 236.822 300.581 235.858 271.49C235.226 252.445 201.108 171.144 201.108 171.144L239.623 175.816Z" fill="#FBCA91"/>
<path d="M263.088 375.706C262.901 375.795 262.697 375.842 262.489 375.841C262.282 375.841 262.078 375.794 261.891 375.703C261.705 375.613 261.541 375.481 261.412 375.319C261.284 375.156 261.193 374.967 261.148 374.764M263.088 375.706L259.38 366.441L261.148 374.764M263.088 375.706C264.462 375.052 265.528 374.508 266.607 373.957C268.125 373.182 269.667 372.395 272.123 371.275L263.088 375.706ZM261.148 374.764L261.636 374.655C261.636 374.656 261.636 374.657 261.636 374.658M261.148 374.764L261.637 374.661L261.636 374.658M261.636 374.658C261.666 374.786 261.723 374.906 261.804 375.008C261.886 375.112 261.99 375.196 262.109 375.253C262.228 375.311 262.358 375.341 262.49 375.341C262.622 375.342 262.753 375.312 262.872 375.255L262.873 375.254C264.24 374.604 265.3 374.063 266.378 373.513C266.598 373.4 266.819 373.288 267.043 373.174C268.367 372.5 269.806 371.782 271.915 370.82L271.915 370.82L271.92 370.818C272.924 370.371 274.903 369.52 277.161 368.548C280.764 366.998 285.078 365.142 287.275 364.138C288.891 363.401 289.366 362.239 289.333 361.363C289.315 360.91 289.164 360.538 288.97 360.31C288.781 360.087 288.583 360.027 288.403 360.065M261.636 374.658L259.869 366.338L259.868 366.334C259.853 366.266 259.863 366.194 259.894 366.132C259.926 366.07 259.978 366.02 260.042 365.992L260.047 365.989L260.047 365.989L269.597 361.628L288.403 360.065M288.403 360.065C284.786 360.843 281.185 361.452 278.109 361.75C275.061 362.046 272.449 362.044 270.861 361.546C270.444 361.419 269.995 361.448 269.597 361.627L288.403 360.065Z" fill="white" stroke="#4A607A"/>
<path d="M274.385 359.117C274.359 359.05 274.328 358.985 274.293 358.922C274.236 358.797 274.146 358.691 274.033 358.614C273.919 358.537 273.787 358.493 273.65 358.486C272.502 358.428 270.619 361.172 270.206 361.723C270.178 361.766 270.163 361.816 270.163 361.867C270.163 361.918 270.178 361.968 270.206 362.01C270.232 362.055 270.271 362.091 270.319 362.111C270.366 362.132 270.419 362.137 270.47 362.125C271.618 361.896 273.765 361.333 274.304 360.208C274.394 360.042 274.448 359.859 274.461 359.671C274.475 359.483 274.449 359.294 274.385 359.117ZM271.078 361.471C271.916 360.323 273.076 358.991 273.627 359.014C273.684 359.014 273.753 359.014 273.822 359.163C273.899 359.285 273.946 359.424 273.958 359.568C273.97 359.712 273.947 359.857 273.891 359.99C273.172 360.819 272.168 361.347 271.078 361.471Z" fill="#4A607A"/>
<path d="M271.698 357.785L271.595 357.59C271.489 357.452 271.341 357.352 271.173 357.306C271.005 357.261 270.826 357.272 270.665 357.338C270.497 357.391 270.342 357.479 270.209 357.596C270.077 357.712 269.97 357.855 269.896 358.015C269.276 359.289 270.194 361.849 270.229 361.953C270.242 361.999 270.269 362.04 270.306 362.07C270.343 362.101 270.388 362.12 270.435 362.125C270.483 362.132 270.531 362.127 270.576 362.108C270.621 362.09 270.659 362.06 270.688 362.022C271.308 361.195 272.1 358.819 271.698 357.785ZM270.55 361.23C270.197 360.27 270.133 359.228 270.366 358.233C270.41 358.14 270.472 358.056 270.549 357.987C270.626 357.918 270.716 357.865 270.814 357.831C271.067 357.751 271.136 357.831 271.159 357.889C271.492 358.348 271.09 360.173 270.55 361.241V361.23Z" fill="#4A607A"/>
<path d="M239.623 175.816C239.623 175.816 246.97 198.776 249.255 209.429C244.594 209.831 222.713 216.513 218.339 219.187C215.664 214.331 202.68 171.327 202.68 171.327L239.623 175.816Z" fill="#A89060"/>
<path opacity="0.2" d="M216.652 187.101C218.006 192.232 219.786 204.883 215.951 213.115C214.241 208.259 212.002 201.325 209.833 194.505C212.06 189.89 215.664 183.347 216.652 187.101Z" fill="black"/>
<path d="M249.404 205.905C250.073 207.454 250.462 209.11 250.552 210.796C246.97 211.484 223.54 218.751 219.235 221.036C217.145 219.497 216.835 216.18 216.72 216.226C216.606 216.272 236.179 207.73 249.404 205.905Z" fill="#4A607A"/>
<path opacity="0.2" d="M249.404 205.905C250.073 207.454 250.462 209.11 250.552 210.796C246.97 211.484 223.54 218.751 219.235 221.036C217.145 219.497 216.835 216.18 216.72 216.226C216.606 216.272 236.179 207.73 249.404 205.905Z" fill="white"/>
<path d="M225.973 174.186C225.973 174.186 197.951 249.518 183.968 273.993C169.136 300.053 107.282 251.986 107.282 251.986L112.838 246.165C112.838 246.165 149.126 261.916 163.465 260.768C177.562 234.364 190.006 169.801 190.006 169.801L225.973 174.186Z" fill="#FBCA91"/>
<path d="M226.88 174.289C226.88 174.289 213.713 208.236 210.464 218.602C206.205 216.65 183.337 211.714 178.216 211.863C178.285 206.307 190.006 169.812 190.006 169.812L226.88 174.289Z" fill="#A89060"/>
<path d="M200.557 174.347C200.587 174.344 200.616 174.333 200.641 174.315C200.665 174.297 200.684 174.272 200.694 174.243C203.783 164.256 210.613 156.667 216.64 149.975C223.953 141.847 230.267 134.832 229.268 125.43C228.545 118.336 225.824 114.157 223.402 110.506C219.958 105.248 217.249 101.093 222.552 90.9099C230.519 75.6415 221.909 68.2139 218.672 65.4243C218.328 65.1389 217.998 64.8362 217.685 64.5174C217.672 64.5045 217.657 64.4943 217.64 64.4874C217.623 64.4804 217.605 64.4769 217.587 64.4769C217.569 64.4769 217.551 64.4804 217.534 64.4874C217.518 64.4943 217.502 64.5045 217.49 64.5174C217.463 64.5452 217.448 64.5822 217.448 64.6207C217.448 64.6592 217.463 64.6962 217.49 64.724C217.696 64.9536 218.052 65.2636 218.511 65.6654C221.703 68.4091 230.175 75.7333 222.323 90.8066C216.95 101.139 219.705 105.352 223.184 110.69C225.583 114.352 228.292 118.496 229.016 125.511C229.968 134.786 223.689 141.766 216.388 149.837C210.349 156.553 203.496 164.164 200.384 174.22C200.379 174.238 200.377 174.256 200.379 174.274C200.381 174.292 200.386 174.309 200.395 174.325C200.403 174.341 200.415 174.356 200.429 174.367C200.443 174.379 200.459 174.387 200.476 174.392L200.557 174.347Z" fill="white"/>
<path d="M215.837 64.5863C215.895 64.785 215.997 64.9683 216.134 65.123C216.272 65.2776 216.442 65.3998 216.633 65.4807C216.824 65.5616 217.03 65.5993 217.237 65.5909C217.444 65.5825 217.646 65.5283 217.83 65.4322C218.013 65.3362 218.173 65.2006 218.298 65.0353C218.423 64.87 218.509 64.6791 218.552 64.4763C218.594 64.2735 218.59 64.0639 218.542 63.8625C218.493 63.6612 218.4 63.4732 218.27 63.312C218.115 62.9312 217.816 62.6266 217.438 62.4635C217.06 62.3004 216.634 62.2918 216.25 62.4395C215.914 62.672 215.682 63.0271 215.605 63.4285C215.527 63.8299 215.611 64.2456 215.837 64.5863Z" fill="white"/>
<path d="M203.411 174.074L194.268 172.44C194.076 172.406 193.879 172.449 193.719 172.561C193.559 172.672 193.45 172.842 193.415 173.034L192.662 177.249L203.251 179.141L204.005 174.926C204.022 174.831 204.02 174.734 203.999 174.639C203.978 174.545 203.939 174.456 203.884 174.377C203.829 174.298 203.759 174.23 203.677 174.178C203.596 174.126 203.506 174.091 203.411 174.074Z" fill="white"/>
<path d="M211.887 215.342C211.707 217.016 211.229 218.646 210.475 220.152C207.031 219.004 183.038 213.757 178.171 213.62C177.103 211.255 178.469 208.213 178.354 208.201C178.239 208.19 199.535 210.44 211.887 215.342Z" fill="#4A607A"/>
<path opacity="0.2" d="M211.887 215.342C211.707 217.016 211.229 218.646 210.475 220.152C207.031 219.004 183.038 213.757 178.171 213.62C177.103 211.255 178.469 208.213 178.354 208.201C178.239 208.19 199.535 210.44 211.887 215.342Z" fill="white"/>
<path d="M88.6801 260.223C91.952 258.494 95.2567 256.941 98.1389 255.831C100.995 254.732 103.509 254.038 105.171 254.092C105.606 254.1 106.03 253.95 106.362 253.67L106.363 253.67L114.394 246.912C114.449 246.862 114.487 246.797 114.501 246.724C114.515 246.651 114.504 246.575 114.471 246.509L110.537 238.973C110.474 238.857 110.386 238.758 110.28 238.681C110.173 238.604 110.05 238.551 109.92 238.528C109.79 238.505 109.656 238.511 109.529 238.547C109.402 238.583 109.284 238.647 109.185 238.734L109.185 238.734L109.183 238.736C108.045 239.727 107.17 240.531 106.28 241.35C106.097 241.518 105.914 241.687 105.727 241.859C104.632 242.863 103.438 243.941 101.669 245.434L101.667 245.435C100.707 246.239 98.6627 247.886 96.4221 249.691C96.1072 249.944 95.7884 250.201 95.4681 250.459C92.8647 252.557 90.1662 254.737 88.6733 255.996C87.3181 257.138 87.1715 258.387 87.4383 259.223C87.5765 259.656 87.8219 259.974 88.0694 260.141C88.31 260.304 88.5161 260.309 88.6801 260.223ZM88.6801 260.223L88.9136 260.665M88.6801 260.223C88.6801 260.223 88.6802 260.222 88.6803 260.222L88.9136 260.665M88.9136 260.665C87.4556 261.434 85.3548 258.139 88.351 255.613C90.0336 254.195 93.2367 251.615 96.1082 249.302C98.3502 247.495 100.39 245.852 101.346 245.052L106.685 254.052C106.258 254.412 105.715 254.603 105.158 254.592C102.058 254.488 95.4342 257.221 88.9136 260.665Z" fill="white" stroke="#4A607A"/>
<path d="M102.46 257.324L102.598 257.485C102.687 257.588 102.802 257.666 102.931 257.711C103.06 257.755 103.199 257.764 103.332 257.737C104.48 257.473 105.525 254.293 105.732 253.708C105.749 253.658 105.75 253.603 105.736 253.552C105.722 253.501 105.692 253.455 105.651 253.421C105.609 253.393 105.559 253.379 105.508 253.379C105.457 253.379 105.407 253.393 105.364 253.421C104.216 253.972 102.403 255.074 102.184 256.291C102.156 256.473 102.165 256.659 102.213 256.837C102.26 257.015 102.345 257.181 102.46 257.324ZM105.009 254.167C104.515 255.522 103.746 257.095 103.218 257.221C103.173 257.229 103.127 257.224 103.085 257.208C103.042 257.192 103.005 257.164 102.977 257.129C102.871 257.031 102.791 256.908 102.743 256.772C102.695 256.636 102.681 256.491 102.701 256.348C102.793 255.763 103.608 255.028 104.986 254.213L105.009 254.167Z" fill="#4A607A"/>
<path d="M105.387 257.921C105.425 257.985 105.476 258.04 105.537 258.082C105.672 258.194 105.843 258.255 106.019 258.255C106.195 258.255 106.365 258.194 106.501 258.082C106.647 257.986 106.771 257.862 106.866 257.715C106.961 257.569 107.024 257.405 107.052 257.232C107.316 255.832 105.743 253.616 105.674 253.513C105.646 253.474 105.607 253.444 105.562 253.426C105.518 253.408 105.469 253.402 105.422 253.409C105.377 253.417 105.334 253.436 105.298 253.464C105.262 253.492 105.234 253.528 105.215 253.57C104.836 254.546 104.756 257.049 105.387 257.921ZM105.56 254.293C106.156 255.123 106.495 256.109 106.535 257.129C106.52 257.231 106.483 257.328 106.427 257.415C106.372 257.502 106.299 257.577 106.214 257.634C105.996 257.783 105.904 257.714 105.869 257.634C105.422 257.324 105.33 255.464 105.56 254.293Z" fill="#4A607A"/>
<path d="M232.804 59.1792C232.712 59.9254 233.034 60.5798 233.516 60.6372C233.998 60.6946 234.48 60.1435 234.572 59.3973C234.664 58.6511 234.342 57.9853 233.849 57.9279C233.355 57.8705 232.896 58.433 232.804 59.1792Z" fill="#806838"/>
<path d="M241.253 60.201C241.161 60.9587 241.494 61.6131 241.976 61.6705C242.459 61.7279 242.941 61.1653 243.033 60.4191C243.124 59.6729 242.792 59.0186 242.309 58.9612C241.827 58.9038 241.368 59.4548 241.253 60.201Z" fill="#806838"/>
<path d="M238.521 60.2469C239.136 62.6601 240.078 64.9777 241.322 67.1349C240.765 67.4361 240.149 67.6126 239.516 67.6523C238.884 67.6919 238.251 67.5937 237.66 67.3645L238.521 60.2469Z" fill="#BC8F63"/>
<path d="M235.261 69.1209C235.315 69.1212 235.367 69.1014 235.407 69.0653C235.448 69.0293 235.473 68.9795 235.479 68.9258C235.482 68.8971 235.479 68.8681 235.471 68.8404C235.463 68.8127 235.45 68.7869 235.432 68.7645C235.413 68.742 235.391 68.7235 235.366 68.7098C235.34 68.6961 235.312 68.6875 235.284 68.6847C234.343 68.5993 233.436 68.2914 232.637 67.7864C231.839 67.2814 231.172 66.5937 230.692 65.7802C230.679 65.7534 230.662 65.7293 230.64 65.7094C230.618 65.6895 230.592 65.6743 230.565 65.6646C230.537 65.655 230.507 65.6511 230.478 65.6532C230.448 65.6553 230.419 65.6634 230.393 65.6769C230.343 65.7059 230.305 65.7521 230.286 65.8069C230.267 65.8617 230.268 65.9216 230.29 65.9754C230.794 66.8547 231.503 67.5996 232.356 68.1471C233.21 68.6946 234.182 69.0286 235.192 69.1209H235.261Z" fill="#806838"/>
<path d="M230.634 56.1485C230.694 56.1483 230.754 56.136 230.809 56.1123C230.864 56.0886 230.914 56.0541 230.956 56.0107C231.329 55.5959 231.795 55.2755 232.316 55.076C232.836 54.8764 233.397 54.8033 233.952 54.8627C234.06 54.8677 234.166 54.8334 234.251 54.7661C234.336 54.6988 234.393 54.603 234.413 54.4966C234.432 54.3902 234.413 54.2802 234.358 54.1872C234.302 54.0941 234.215 54.0241 234.113 53.9903C233.415 53.9021 232.707 53.981 232.047 54.2206C231.386 54.4601 230.792 54.8534 230.313 55.3679C230.232 55.4531 230.187 55.5661 230.187 55.6835C230.187 55.801 230.232 55.914 230.313 55.9993C230.398 56.0871 230.512 56.1402 230.634 56.1485Z" fill="#806838"/>
<path d="M245.363 57.7557H245.512C245.623 57.7166 245.713 57.6358 245.765 57.5307C245.816 57.4255 245.825 57.3044 245.788 57.1932C245.574 56.5233 245.203 55.9143 244.706 55.417C244.208 54.9197 243.599 54.5486 242.929 54.3347C242.873 54.3193 242.814 54.3154 242.756 54.3233C242.697 54.3313 242.642 54.3508 242.591 54.3808C242.541 54.4108 242.497 54.4507 242.462 54.498C242.428 54.5453 242.403 54.5991 242.39 54.6562C242.362 54.7703 242.38 54.8908 242.44 54.9917C242.5 55.0927 242.597 55.1659 242.711 55.1957C243.253 55.3601 243.746 55.6556 244.147 56.0561C244.547 56.4566 244.843 56.9497 245.007 57.4917C245.037 57.5635 245.086 57.6258 245.149 57.6723C245.212 57.7187 245.286 57.7475 245.363 57.7557Z" fill="#806838"/>
<path d="M189.249 95.2953C186.448 100.806 183.991 106.259 181.695 111.953C180.547 114.8 179.468 117.693 178.503 120.643C177.457 123.696 176.595 126.809 175.92 129.965C175.76 130.803 175.611 131.675 175.484 132.582C175.351 133.599 175.275 134.622 175.255 135.647C175.246 137.418 175.68 139.162 176.517 140.722C177.269 142.1 178.311 143.298 179.571 144.235C181.367 145.545 183.403 146.489 185.564 147.013C187.282 147.444 189.033 147.732 190.799 147.874C197.148 148.288 203.523 147.786 209.729 146.381L209.121 139.654L204.839 139.287C203.404 139.149 201.98 138.977 200.568 138.816C197.837 138.496 195.127 138.017 192.452 137.381C191.275 137.089 190.124 136.705 189.008 136.233C188.282 136.002 187.619 135.61 187.068 135.085C186.987 134.959 187.068 134.97 187.274 135.2C187.426 135.432 187.528 135.694 187.573 135.969C187.573 136.026 187.573 135.969 187.573 135.889V135.728V135.395L187.722 134.603C187.86 134.04 187.997 133.455 188.17 132.846C188.87 130.401 189.8 127.749 190.845 125.132C191.889 122.514 192.991 119.851 194.162 117.211C196.458 111.93 198.949 106.569 201.383 101.391L189.249 95.2953Z" fill="#FBCA91"/>
<path d="M205.78 141.296L209.649 136.313C210.132 135.697 210.735 135.186 211.423 134.812C212.11 134.438 212.867 134.208 213.647 134.137C214.426 134.066 215.212 134.155 215.956 134.399C216.7 134.643 217.386 135.037 217.972 135.556C218.715 136.23 219.268 137.087 219.576 138.041C219.885 138.996 219.938 140.015 219.73 140.996C219.522 141.977 219.061 142.887 218.392 143.635C217.723 144.382 216.869 144.941 215.917 145.256C213.831 145.965 211.67 146.431 209.477 146.645L205.78 141.296Z" fill="#FFDBB1"/>
<path d="M196.906 88.8091C182.625 90.7837 178.159 115.213 178.159 115.213L194.047 123.502C199.104 118.292 203.415 112.408 206.859 106.018C212.496 95.3757 206.4 87.4889 196.906 88.8091Z" fill="#0D1C41"/>
</svg>
