<svg width="471" height="663" viewBox="0 0 471 663" fill="none" xmlns="http://www.w3.org/2000/svg">
<g filter="url(#filter0_d_60_2397)">
<path d="M443 643C448.523 643 453 638.523 453 633V113C453 107.477 448.523 103 443 103H354.5C305.448 103 282.828 65.0628 276.795 43.7063L276.5 42.4842C271.154 21.5104 252.138 6 229.5 6C207.399 6 188.751 20.7828 182.904 41C182.702 41.8672 182.47 42.7709 182.205 43.7063C176.172 65.0628 153.552 103 104.5 103H28C22.4772 103 18 107.477 18 113V633C18 638.523 22.4771 643 28 643H443Z" fill="white"/>
</g>
<rect x="198.5" y="26.5" width="62" height="62" rx="31" fill="white"/>
<rect x="198.5" y="26.5" width="62" height="62" rx="31" stroke="#4A607A"/>
<path d="M229.525 70V47.9922H229.455L222.74 52.8262V49.4863L229.49 44.6348H232.584V70H229.525Z" fill="#0D1C41"/>
<defs>
<filter id="filter0_d_60_2397" x="0" y="-10" width="471" height="673" filterUnits="userSpaceOnUse" color-interpolation-filters="sRGB">
<feFlood flood-opacity="0" result="BackgroundImageFix"/>
<feColorMatrix in="SourceAlpha" type="matrix" values="0 0 0 0 0 0 0 0 0 0 0 0 0 0 0 0 0 0 127 0" result="hardAlpha"/>
<feOffset dy="2"/>
<feGaussianBlur stdDeviation="9"/>
<feColorMatrix type="matrix" values="0 0 0 0 0.160784 0 0 0 0 0.160784 0 0 0 0 0.160784 0 0 0 0.1 0"/>
<feBlend mode="normal" in2="BackgroundImageFix" result="effect1_dropShadow_60_2397"/>
<feBlend mode="normal" in="SourceGraphic" in2="effect1_dropShadow_60_2397" result="shape"/>
</filter>
</defs>
</svg>
