<svg width="391" height="353" viewBox="0 0 391 353" fill="none" xmlns="http://www.w3.org/2000/svg">
<path opacity="0.9" d="M2.94416 179.781C-20.1306 260.134 129.28 298.048 209.122 286.338C310.129 271.578 367.064 216.474 365.519 131.604C363.993 47.5118 269.224 -0.664888 197.825 34.7886C162.638 52.2645 136.867 83.9886 101.767 102.134C60.1047 123.732 17.3598 129.568 2.94416 179.781Z" fill="#DDD0A4"/>
<path d="M200 352.719C305.369 352.719 390.788 347.732 390.788 341.58C390.788 335.428 305.369 330.441 200 330.441C94.6309 330.441 9.21228 335.428 9.21228 341.58C9.21228 347.732 94.6309 352.719 200 352.719Z" fill="#A89060"/>
<path d="M115.376 31.7579C107.947 24.7814 95.696 23.4431 91.1105 30.705C86.5251 37.967 89.1425 45.6422 79.7355 53.6913C73.3395 59.1918 78.0823 76.0478 114.569 74.5029C131.838 73.7747 125.993 55.8069 125.531 47.315C125.068 38.823 125.039 28.432 115.376 31.7579Z" fill="#263238"/>
<path d="M101 327.981L92.1635 328.326L91.9962 318.761L100.833 318.417L101 327.981Z" fill="#FDCEA4"/>
<path d="M91.6124 326.495H101.6C101.776 326.494 101.947 326.552 102.085 326.661C102.223 326.771 102.319 326.924 102.358 327.096L104.089 335.017C104.129 335.21 104.125 335.41 104.078 335.601C104.03 335.792 103.94 335.97 103.815 336.122C103.689 336.274 103.531 336.396 103.352 336.479C103.173 336.562 102.978 336.604 102.781 336.601C99.2875 336.542 97.5951 336.335 93.1966 336.335C90.4906 336.335 83.4747 336.621 79.7355 336.621C75.9963 336.621 75.524 332.921 77.0492 332.586C83.9372 331.081 87.942 329.014 90.1462 327.037C90.5505 326.68 91.0733 326.487 91.6124 326.495Z" fill="#263238"/>
<path opacity="0.2" d="M91.9962 318.771L92.0749 323.219L100.911 322.835L100.833 318.427L91.9962 318.771Z" fill="black"/>
<path d="M78.968 135.344C77 145.951 79.2632 197.798 82.2644 220.696C86.2594 251.101 90.3922 321.703 90.3922 321.703L102.2 320.995C102.2 320.995 105.152 246.644 102.741 222.231C104.109 190.812 107.494 135.934 107.494 135.934L78.968 135.344Z" fill="#4A607A"/>
<path opacity="0.2" d="M105.536 170.128C105.949 162.167 100.311 155.092 98.0379 170.128C96.6013 179.683 99.573 196.43 103.47 208.258C104.07 195.948 104.837 182.241 105.536 170.128Z" fill="black"/>
<path d="M165.924 298.235L160.177 303.726L152.394 295.381L158.131 289.9L165.924 298.235Z" fill="#FDCEA4"/>
<path d="M158.672 303.873L164.576 295.785C164.672 295.644 164.818 295.546 164.985 295.509C165.151 295.472 165.325 295.501 165.471 295.588L172.359 299.642C172.529 299.755 172.674 299.9 172.786 300.07C172.898 300.24 172.975 300.431 173.012 300.631C173.049 300.831 173.045 301.037 173 301.236C172.956 301.434 172.872 301.622 172.753 301.787C170.657 304.572 169.506 305.802 166.918 309.364C165.324 311.549 163.484 314.56 161.289 317.59C159.095 320.621 156.094 318.446 156.743 316.98C159.695 310.397 158.446 308.567 158.288 305.428C158.238 304.881 158.373 304.334 158.672 303.873Z" fill="#263238"/>
<path opacity="0.2" d="M152.394 295.391L156.409 299.681L162.106 294.151L158.141 289.9L152.394 295.391Z" fill="black"/>
<path d="M92.6653 135.629C92.6653 135.629 105.379 202.541 108.685 228.519C110.653 244.036 154.047 299.868 154.047 299.868L161.457 292.065C161.457 292.065 145.575 251.19 126.446 226.944C125.688 198.526 128.916 151.747 117.934 136.15L92.6653 135.629Z" fill="#4A607A"/>
<path d="M81.5067 84.3232C81.5067 90.0698 81.2411 95.7081 80.8179 101.405C80.3948 107.103 79.8339 112.771 78.9188 118.478L78.7515 119.55L78.5252 120.761C78.3547 121.555 78.1677 122.332 77.9643 123.093C77.5314 124.598 76.9803 126.045 76.4883 127.442C75.4118 130.182 74.1899 132.862 72.8279 135.472C70.1459 140.574 67.0905 145.471 63.6865 150.123C63.3272 150.606 62.8024 150.938 62.2129 151.057C61.6234 151.176 61.0107 151.074 60.4923 150.769C59.974 150.464 59.5864 149.978 59.4041 149.405C59.2218 148.832 59.2576 148.212 59.5045 147.663V147.604C61.8169 142.606 64.0604 137.479 66.0186 132.401C67.0026 129.863 67.8783 127.295 68.6262 124.775C68.9804 123.516 69.2953 122.266 69.5413 121.046C69.6692 120.436 69.7578 119.836 69.8463 119.245L69.9447 118.37L70.0431 117.386C70.545 111.934 70.8402 106.404 71.1157 100.864C71.3912 95.3243 71.5191 89.7352 71.6766 84.2445V84.1953C71.6975 82.8904 72.2358 81.6473 73.1733 80.7394C74.1107 79.8315 75.3704 79.3331 76.6753 79.354C77.9802 79.3749 79.2233 79.9133 80.1312 80.8507C81.0391 81.7882 81.5375 83.0479 81.5166 84.3527L81.5067 84.3232Z" fill="#FDCEA4"/>
<path d="M78.2989 77.1301C66.2154 80.6627 67.7701 102.645 67.7701 102.645L84.9507 107.27C84.9507 107.27 87.8043 91.1718 87.5485 85.3957C87.2926 79.3933 84.9606 75.1917 78.2989 77.1301Z" fill="#4A607A"/>
<path d="M60.7837 146.394L54.7321 151.54L63.2141 155.004C63.2141 155.004 65.8414 150.999 64.6213 147.201L60.7837 146.394Z" fill="#FDCEA4"/>
<path d="M55.8047 159.393L59.6718 159.875C60.1014 159.928 60.5367 159.839 60.9103 159.62C61.2838 159.401 61.5748 159.065 61.7382 158.664L63.2142 155.004L54.7321 151.54L54.0925 157.218C54.0341 157.733 54.1812 158.25 54.5017 158.657C54.8223 159.064 55.2904 159.329 55.8047 159.393Z" fill="#FDCEA4"/>
<path d="M74.3924 82.8472C73.8512 104.889 78.9188 120.977 78.9778 135.344L117.934 136.151C117.649 121.764 117.767 112.377 123.956 86.5963C124.226 85.4734 124.258 84.3067 124.05 83.1707C123.843 82.0348 123.401 80.9545 122.753 79.9989C122.105 79.0434 121.265 78.2334 120.286 77.6209C119.307 77.0083 118.211 76.6066 117.068 76.4414C114.736 76.097 112.148 75.7723 109.521 75.5951C103.634 75.0496 97.7146 74.9247 91.8092 75.2212C87.6567 75.5164 83.1893 76.1265 80.0012 76.6087C78.4867 76.8339 77.098 77.5801 76.0743 78.7188C75.0506 79.8574 74.4558 81.3174 74.3924 82.8472Z" fill="#4A607A"/>
<path d="M110.702 103.216L99.1498 103.137C99.0348 103.142 98.9201 103.122 98.8135 103.079C98.707 103.035 98.6112 102.969 98.5326 102.885C98.4541 102.801 98.3947 102.7 98.3585 102.591C98.3224 102.482 98.3104 102.366 98.3233 102.252L98.9629 96.7807C99.0045 96.5365 99.131 96.3148 99.3199 96.1546C99.5089 95.9944 99.7483 95.906 99.9961 95.9049L111.538 95.9836C111.653 95.9771 111.767 95.9958 111.874 96.0382C111.981 96.0806 112.077 96.1458 112.155 96.2292C112.234 96.3127 112.294 96.4123 112.33 96.5211C112.366 96.63 112.378 96.7454 112.365 96.8594L111.725 102.34C111.686 102.584 111.561 102.805 111.374 102.965C111.187 103.126 110.949 103.215 110.702 103.216Z" fill="white"/>
<path opacity="0.4" d="M91.8683 75.231C91.8683 75.231 85.5116 79.6787 92.2323 90.8373C97.7501 85.4702 103.533 80.383 109.561 75.5951L91.8683 75.231Z" fill="white"/>
<path d="M108.222 55.6396C106.992 61.3075 105.654 71.7182 109.561 75.5952C103.418 78.0149 97.7539 81.5066 92.8326 85.9075C88.5129 77.9765 91.8486 75.2213 91.8486 75.2213C98.2249 73.8437 98.1659 69.1303 97.1524 64.6826L108.222 55.6396Z" fill="#FDCEA4"/>
<path opacity="0.2" d="M107.022 56.6237C106.868 60.0103 105.993 63.325 104.454 66.3456C103.381 68.4218 100.518 69.2976 97.6345 69.4648C97.7297 67.8564 97.5737 66.243 97.172 64.6826L107.022 56.6237Z" fill="black"/>
<path d="M117.442 48.7024C114.49 57.7749 113.506 61.6715 107.602 65.2139C98.7956 70.5374 88.2963 64.9778 88.4341 55.2263C88.5718 46.449 93.3541 33.0962 103.263 31.7284C105.457 31.4107 107.696 31.66 109.767 32.4525C111.838 33.2451 113.671 34.5544 115.092 36.256C116.514 37.9576 117.476 39.9947 117.887 42.1733C118.299 44.352 118.146 46.5997 117.442 48.7024Z" fill="#FDCEA4"/>
<path d="M93.3835 36.7861C98.3035 38.1736 110.289 39.2068 112.69 37.7702C110.436 41.2338 112.581 50.6999 116.065 52.9926C120.758 49.2239 121.801 40.1121 117.462 35.5955C113.123 31.0789 99.4056 25.6768 93.3835 36.7861Z" fill="#263238"/>
<path d="M118.82 54.2521C118.509 55.1165 118.029 55.91 117.407 56.5859C116.785 57.2619 116.034 57.8066 115.199 58.1881C112.975 59.1721 111.499 57.2828 111.814 54.9901C112.099 52.9336 113.605 49.9324 115.986 49.893C116.5 49.9001 117.004 50.0337 117.454 50.2819C117.904 50.5301 118.286 50.8854 118.566 51.3163C118.846 51.7472 119.016 52.2404 119.06 52.7525C119.105 53.2645 119.022 53.7796 118.82 54.2521Z" fill="#FDCEA4"/>
<path d="M118.564 133.877L120.257 137.41C120.385 137.676 120.06 137.951 119.607 137.941L78.7417 137.085C78.3973 137.085 78.1119 136.898 78.0922 136.672L77.8069 133.179C77.8069 132.943 78.1021 132.746 78.4858 132.746L117.944 133.572C118.065 133.565 118.186 133.589 118.295 133.643C118.403 133.696 118.496 133.777 118.564 133.877Z" fill="#263238"/>
<path d="M113.182 138.178H114.235C114.441 138.178 114.609 138.069 114.599 137.941L114.195 133.395C114.195 133.267 113.998 133.149 113.792 133.149H112.729C112.522 133.149 112.365 133.248 112.375 133.385L112.768 137.922C112.788 138.069 112.965 138.178 113.182 138.178Z" fill="#4A607A"/>
<path d="M81.7035 137.528H82.7662C82.9729 137.528 83.1402 137.43 83.1303 137.292L82.7269 132.746C82.7269 132.618 82.5301 132.51 82.3234 132.5H81.2607C81.0541 132.5 80.8868 132.598 80.9065 132.736L81.3001 137.272C81.3198 137.41 81.4969 137.518 81.7035 137.528Z" fill="#4A607A"/>
<path d="M97.4377 137.853H98.5005C98.7071 137.853 98.8744 137.754 98.8645 137.617L98.4611 133.08C98.4611 132.943 98.2643 132.834 98.0576 132.834H96.9949C96.7883 132.834 96.6309 132.943 96.6407 133.071L97.0343 137.617C97.054 137.735 97.2311 137.853 97.4377 137.853Z" fill="#4A607A"/>
<path d="M103.283 47.9447C103.086 48.6926 102.535 49.2042 102.043 49.0763C101.551 48.9484 101.315 48.2399 101.502 47.4921C101.689 46.7443 102.249 46.2326 102.741 46.3605C103.233 46.4884 103.47 47.1969 103.283 47.9447Z" fill="#263238"/>
<path d="M94.8006 45.7799C94.6136 46.5376 94.0626 47.0394 93.5706 46.9115C93.0786 46.7836 92.8326 46.085 93.0294 45.3273C93.2262 44.5696 93.7674 44.0776 94.2594 44.1957C94.7514 44.3138 94.9974 45.0321 94.8006 45.7799Z" fill="#263238"/>
<path d="M94.466 44.294L92.7932 43.3101C92.7932 43.3101 93.3639 44.9632 94.466 44.294Z" fill="#263238"/>
<path d="M96.68 47.6397C95.5784 49.1819 94.2706 50.5658 92.7932 51.7528C93.1051 52.1224 93.4938 52.4195 93.9323 52.6234C94.3707 52.8273 94.8484 52.9332 95.3319 52.9336L96.68 47.6397Z" fill="#D19146"/>
<path d="M97.1523 55.8758C97.1177 55.8461 97.092 55.8074 97.0781 55.764C97.0642 55.7205 97.0627 55.6741 97.0736 55.6298C97.0826 55.6013 97.0971 55.5749 97.1163 55.552C97.1355 55.5291 97.1591 55.5103 97.1856 55.4966C97.2121 55.4829 97.2411 55.4745 97.2708 55.4721C97.3006 55.4696 97.3306 55.473 97.359 55.4822C98.2781 55.7703 99.252 55.8384 100.202 55.6812C101.153 55.524 102.053 55.1457 102.83 54.5769C102.876 54.5378 102.935 54.5184 102.995 54.523C103.055 54.5276 103.111 54.5559 103.15 54.6015C103.189 54.6472 103.208 54.7066 103.204 54.7665C103.199 54.8265 103.171 54.8822 103.125 54.9213C102.293 55.5491 101.322 55.9664 100.294 56.1377C99.266 56.3091 98.2118 56.2293 97.2212 55.9053L97.1523 55.8758Z" fill="#263238"/>
<path d="M107.907 44.4909C107.848 44.4376 107.798 44.3743 107.76 44.3039C107.557 43.7706 107.229 43.2933 106.805 42.9117C106.381 42.5301 105.871 42.2551 105.319 42.1096C105.201 42.0887 105.095 42.0215 105.026 41.9228C104.957 41.8241 104.93 41.7019 104.95 41.5831C104.971 41.4644 105.039 41.3588 105.137 41.2896C105.236 41.2204 105.358 41.1933 105.477 41.2141C106.179 41.3878 106.829 41.7266 107.373 42.2025C107.918 42.6783 108.34 43.2773 108.606 43.9497C108.641 44.0422 108.645 44.1434 108.618 44.2384C108.591 44.3335 108.534 44.4174 108.456 44.478C108.378 44.5385 108.283 44.5724 108.184 44.5747C108.085 44.577 107.988 44.5476 107.907 44.4909Z" fill="#263238"/>
<path d="M93.1277 40.9977L93.0687 40.9386C92.984 40.8538 92.9364 40.7388 92.9364 40.6188C92.9364 40.4989 92.984 40.3839 93.0687 40.299C93.5883 39.8115 94.2154 39.4532 94.8992 39.2532C95.583 39.0532 96.3043 39.0171 97.0047 39.1478C97.0633 39.1626 97.1182 39.189 97.1664 39.2254C97.2146 39.2618 97.255 39.3075 97.2853 39.3598C97.3155 39.412 97.335 39.4698 97.3426 39.5297C97.3502 39.5896 97.3457 39.6505 97.3294 39.7086C97.2993 39.8247 97.2244 39.9241 97.1211 39.985C97.0178 40.0459 96.8945 40.0633 96.7784 40.0334C96.217 39.9275 95.6385 39.9571 95.0909 40.1197C94.5432 40.2823 94.0423 40.5732 93.6296 40.9682C93.5582 41.0221 93.4725 41.0537 93.3831 41.059C93.2938 41.0642 93.2049 41.0429 93.1277 40.9977Z" fill="#263238"/>
<path d="M123.947 83.3983C126.81 87.1867 129.487 91.0046 132.084 94.9701C133.373 96.9381 134.653 98.9061 135.863 101.032C137.167 103.181 138.336 105.409 139.366 107.703C139.677 108.418 139.947 109.151 140.173 109.897C140.337 110.473 140.449 111.063 140.507 111.659C140.524 111.898 140.524 112.138 140.507 112.377V112.82C140.489 113.015 140.46 113.209 140.419 113.4L140.35 113.705V113.843V113.951L140.271 114.168C139.809 115.349 139.445 116.539 138.894 117.681C137.896 120.02 136.697 122.269 135.312 124.402C133.885 126.555 132.214 128.536 130.333 130.306C129.374 131.204 128.344 132.024 127.253 132.756C126.692 133.12 126.121 133.474 125.531 133.799L124.596 134.251C124.242 134.409 123.986 134.517 123.474 134.704L121.605 130.217C121.738 130.087 121.879 129.965 122.028 129.853L122.569 129.381C122.933 129.056 123.287 128.702 123.632 128.338C124.333 127.586 124.99 126.794 125.6 125.966C126.802 124.276 127.849 122.481 128.729 120.603C129.142 119.619 129.595 118.694 129.939 117.651C130.284 116.608 130.667 115.683 130.982 114.699C131.297 113.715 131.543 112.633 131.848 111.61V111.423V111.324V111.413V111.61C131.848 111.728 131.799 111.905 131.789 111.974C131.784 112.049 131.784 112.125 131.789 112.2V112.485C131.789 112.712 131.789 112.643 131.789 112.544C131.789 112.446 131.514 111.915 131.307 111.501C130.411 109.819 129.211 107.88 127.981 106.03C126.751 104.18 125.472 102.281 124.163 100.421C121.555 96.6921 118.869 92.9234 116.232 89.2235L123.947 83.3983Z" fill="#FDCEA4"/>
<path d="M126.082 133.543L118.495 138.906L115.091 131.152C115.091 131.152 119.696 128.682 123.327 130.335L126.082 133.543Z" fill="#FDCEA4"/>
<path d="M113.211 139.545L111.312 136.898C110.952 136.388 110.804 135.757 110.902 135.139C110.999 134.522 111.333 133.967 111.834 133.592L115.091 131.152L118.495 138.906L116.409 140.195C115.893 140.512 115.276 140.621 114.682 140.5C114.089 140.38 113.563 140.038 113.211 139.545Z" fill="#FDCEA4"/>
<path d="M108.764 81.0563C106.185 91.2997 122.087 108.835 122.087 108.835L135.46 94.9504C135.46 94.9504 129.349 81.9026 121.369 77.8091C115.799 74.9555 109.905 76.5398 108.764 81.0563Z" fill="#4A607A"/>
<path d="M102.948 46.4589L101.275 45.4749C101.275 45.4749 101.836 47.128 102.948 46.4589Z" fill="#263238"/>
<path d="M85.856 108.421C85.7841 108.421 85.714 108.399 85.6545 108.359C85.5949 108.319 85.5487 108.262 85.5215 108.195C85.4895 108.108 85.4933 108.011 85.5319 107.926C85.5706 107.842 85.6411 107.776 85.7281 107.742L87.2631 107.152C88.701 106.621 89.9425 105.664 90.8217 104.408C91.7009 103.153 92.1758 101.659 92.1831 100.126L92.2914 85.7402C92.3225 84.6449 91.9766 83.5722 91.3115 82.7015C90.6465 81.8308 89.7026 81.2148 88.6378 80.9567C87.5729 80.6985 86.4518 80.8139 85.4618 81.2834C84.4718 81.7529 83.6731 82.5481 83.1992 83.536L76.5474 96.328C75.8327 97.6785 75.5442 99.2138 75.7199 100.732C75.8955 102.249 76.5271 103.678 77.5314 104.83L78.6138 106.06C78.6502 106.094 78.6792 106.135 78.6987 106.18C78.7182 106.226 78.7279 106.275 78.7271 106.325C78.7263 106.375 78.7151 106.424 78.6941 106.469C78.6732 106.514 78.643 106.554 78.6055 106.587C78.568 106.619 78.524 106.644 78.4765 106.658C78.429 106.673 78.3789 106.677 78.3296 106.671C78.2802 106.665 78.2327 106.649 78.1902 106.623C78.1476 106.597 78.1109 106.563 78.0824 106.522L77 105.184C75.8918 103.933 75.1916 102.373 74.9929 100.713C74.7943 99.0535 75.1066 97.3727 75.8881 95.8951L82.5399 83.103C83.1085 82.0113 84.028 81.1428 85.1503 80.6373C86.2727 80.1318 87.5325 80.0188 88.7268 80.3166C89.9212 80.6143 90.9806 81.3054 91.7343 82.2786C92.488 83.2517 92.8922 84.4503 92.8818 85.6811L92.7735 100.067C92.7656 101.736 92.2516 103.363 91.2993 104.733C90.3471 106.104 89.0014 107.153 87.4403 107.742L85.9052 108.323L85.856 108.421Z" fill="#263238"/>
<path d="M92.5374 88.948C92.4459 88.9456 92.3586 88.9089 92.2929 88.845C92.2273 88.7812 92.1881 88.695 92.1832 88.6035C92.0436 87.4666 91.5629 86.3985 90.8042 85.5402C90.0456 84.6819 89.0447 84.0737 87.9334 83.7956C86.8222 83.5175 85.6527 83.5827 84.5792 83.9825C83.5058 84.3823 82.5786 85.098 81.92 86.0353C81.8974 86.076 81.867 86.1119 81.8305 86.1408C81.7941 86.1698 81.7523 86.1913 81.7075 86.2041C81.6627 86.2169 81.6159 86.2207 81.5696 86.2154C81.5233 86.2101 81.4786 86.1957 81.4379 86.1731C81.3972 86.1505 81.3613 86.1201 81.3324 86.0836C81.3034 86.0471 81.2819 86.0053 81.2691 85.9605C81.2563 85.9158 81.2525 85.8689 81.2578 85.8226C81.2631 85.7764 81.2775 85.7316 81.3001 85.6909C82.0323 84.6088 83.0793 83.7776 84.2993 83.3101C85.5194 82.8425 86.8536 82.761 88.1215 83.0766C89.3894 83.3922 90.5298 84.0898 91.3882 85.0748C92.2467 86.0598 92.7818 87.2847 92.9212 88.5839C92.9213 88.6771 92.8857 88.7669 92.8216 88.8346C92.7575 88.9023 92.6699 88.9429 92.5768 88.948H92.5374Z" fill="#263238"/>
<path d="M88.6997 81.0858C88.6415 81.0851 88.5843 81.0704 88.533 81.043C88.4816 81.0156 88.4375 80.9763 88.4045 80.9284C88.2247 80.5294 88.1317 80.0967 88.1317 79.659C88.1317 79.2213 88.2247 78.7887 88.4045 78.3897C88.6599 77.596 89.0906 76.87 89.6646 76.2653C90.2386 75.6606 90.9413 75.1928 91.7206 74.8965C91.7638 74.8796 91.8099 74.8718 91.8562 74.8737C91.9025 74.8756 91.9479 74.8871 91.9896 74.9074C92.0312 74.9278 92.0681 74.9566 92.0981 74.9919C92.128 75.0273 92.1502 75.0685 92.1634 75.1129C92.1919 75.2004 92.1852 75.2955 92.1448 75.3782C92.1044 75.4608 92.0334 75.5245 91.9469 75.5557C91.2795 75.8294 90.6796 76.2448 90.1886 76.7732C89.6976 77.3016 89.3272 77.9303 89.1032 78.616C88.9564 78.9207 88.8713 79.2515 88.8527 79.5892C88.8341 79.9269 88.8825 80.265 88.9949 80.584C89.0204 80.6233 89.0378 80.6673 89.0461 80.7134C89.0545 80.7595 89.0536 80.8068 89.0435 80.8526C89.0334 80.8983 89.0144 80.9416 88.9875 80.98C88.9605 81.0183 88.9263 81.051 88.8867 81.076C88.826 81.0939 88.7619 81.0972 88.6997 81.0858Z" fill="#263238"/>
<path d="M85.0492 107.88C84.8819 108.52 85.0492 109.13 85.5215 109.238C85.9938 109.346 86.4268 108.903 86.5842 108.254C86.7416 107.605 86.5252 106.995 86.102 106.896C85.6789 106.798 85.2066 107.231 85.0492 107.88Z" fill="#263238"/>
<path d="M112.975 90.8865C113.29 92.3723 114.353 93.3957 115.327 93.1891C116.301 92.9824 116.832 91.595 116.508 90.119C116.183 88.643 115.13 87.5999 114.156 87.8164C113.182 88.0329 112.65 89.44 112.975 90.8865Z" fill="#263238"/>
<path d="M116.055 90.424C116.01 90.4253 115.965 90.4177 115.922 90.4016C115.88 90.3855 115.841 90.3612 115.809 90.3301C115.776 90.2991 115.749 90.2618 115.731 90.2205C115.712 90.1792 115.702 90.1347 115.701 90.0894C115.494 84.6479 113.428 77.8879 109.403 75.8903C109.32 75.8482 109.257 75.7749 109.227 75.6865C109.198 75.5981 109.204 75.5016 109.246 75.418C109.266 75.376 109.294 75.3383 109.329 75.3075C109.363 75.2766 109.404 75.2531 109.448 75.2384C109.492 75.2237 109.539 75.218 109.585 75.2219C109.632 75.2257 109.677 75.2389 109.718 75.2606C114.028 77.3959 116.183 84.2347 116.399 90.0206C116.403 90.0669 116.398 90.1136 116.383 90.1577C116.368 90.2017 116.344 90.2422 116.312 90.2765C116.281 90.3107 116.243 90.338 116.2 90.3567C116.157 90.3753 116.111 90.3848 116.065 90.3847L116.055 90.424Z" fill="#263238"/>
<path d="M111.922 91.0144C112.129 92.2838 113.044 93.189 113.969 93.0414C114.894 92.8938 115.484 91.7425 115.278 90.4633C115.071 89.1842 114.146 88.2887 113.221 88.4363C112.296 88.5839 111.715 89.7352 111.922 91.0144Z" fill="white"/>
<path d="M111.843 91.1226C112.139 92.697 112.965 93.8582 113.684 93.7204C114.402 93.5826 114.727 92.205 114.431 90.6306C114.136 89.0562 113.31 87.8951 112.591 88.0329C111.873 88.1706 111.538 89.5482 111.843 91.1226Z" fill="#263238"/>
<path d="M77.6101 106.02C77.4527 106.67 77.6692 107.28 78.0923 107.378C78.5154 107.477 78.9877 107.054 79.155 106.394C79.3223 105.735 79.096 105.145 78.6728 105.036C78.2497 104.928 77.7774 105.381 77.6101 106.02Z" fill="#263238"/>
<path d="M185.397 25.8933C179.169 27.0052 178.381 26.4345 178.303 21.9573C178.224 17.4801 175.961 10.0115 179.11 7.66959C179.326 7.46464 179.592 7.31996 179.881 7.25C180.171 7.18004 180.473 7.18725 180.759 7.2709C181.045 7.35456 181.304 7.51173 181.51 7.72673C181.716 7.94173 181.862 8.20703 181.934 8.49614C182.126 8.00502 182.5 7.60705 182.979 7.38523C183.457 7.1634 184.003 7.13484 184.502 7.30551C184.63 6.38055 184.777 4.00911 186.47 3.36951C188.162 2.72991 189.717 4.26495 189.717 4.26495C189.717 4.26495 189.589 0.614304 192.049 0.968544C192.784 1.0859 193.466 1.4219 194.006 1.93269C194.547 2.44349 194.921 3.10537 195.08 3.83199C195.08 3.83199 196.497 1.76559 198.416 2.58231C200.334 3.39903 199.931 5.79999 199.931 5.79999C199.931 5.79999 201.968 4.81598 203.483 5.9279C204.999 7.03982 203.897 8.82087 203.897 8.82087C203.897 8.82087 205.274 5.27847 207.901 7.23663C210.263 9.00782 208.118 11.7827 208.118 11.7827C208.118 11.7827 210.716 11.3596 211.345 12.6683C213.471 17.1258 205.373 22.1049 205.107 29.6325C192.669 34.336 185.397 25.8933 185.397 25.8933Z" fill="#263238"/>
<path d="M140.507 145.528L136.355 144.76L130.864 150.005C130.565 150.29 130.329 150.634 130.172 151.015C130.014 151.397 129.938 151.807 129.949 152.219L130.028 156.509C130.037 157.243 130.32 157.947 130.82 158.483C131.32 159.02 132.003 159.351 132.734 159.412L134.643 159.579C135.337 159.645 136.032 159.463 136.605 159.065C137.178 158.667 137.591 158.079 137.772 157.405L138.756 153.902C138.756 153.902 144.178 147.496 140.507 145.528Z" fill="#FFB573"/>
<path d="M182.445 67.0638C179.661 74.2765 176.886 81.5188 174.209 88.7807C171.533 96.0426 168.876 103.334 166.387 110.507L165.944 111.836L165.639 112.702C165.521 113.026 165.403 113.361 165.294 113.617C164.832 114.788 164.369 115.752 163.907 116.726C162.982 118.694 162.047 120.456 161.102 122.237C159.203 125.779 157.245 129.194 155.267 132.598C151.331 139.417 147.395 146.079 143.322 152.839L130.795 145.046C134.928 138.62 138.913 131.988 142.731 125.366C144.611 122.04 146.461 118.704 148.183 115.398C149.039 113.745 149.865 112.092 150.593 110.478C150.938 109.701 151.282 108.903 151.508 108.254C151.587 108.067 151.617 107.939 151.666 107.811L151.823 107.3L152.276 105.863C154.647 98.3058 157.137 91.0045 159.538 83.595L166.741 61.4452L182.445 67.0638Z" fill="#C2D4FE"/>
<path opacity="0.6" d="M182.445 67.0638C179.661 74.2765 176.886 81.5188 174.209 88.7807C171.533 96.0426 168.876 103.334 166.387 110.507L165.944 111.836L165.639 112.702C165.521 113.026 165.403 113.361 165.294 113.617C164.832 114.788 164.369 115.752 163.907 116.726C162.982 118.694 162.047 120.456 161.102 122.237C159.203 125.779 157.245 129.194 155.267 132.598C151.331 139.417 147.395 146.079 143.322 152.839L130.795 145.046C134.928 138.62 138.913 131.988 142.731 125.366C144.611 122.04 146.461 118.704 148.183 115.398C149.039 113.745 149.865 112.092 150.593 110.478C150.938 109.701 151.282 108.903 151.508 108.254C151.587 108.067 151.617 107.939 151.666 107.811L151.823 107.3L152.276 105.863C154.647 98.3058 157.137 91.0045 159.538 83.595L166.741 61.4452L182.445 67.0638Z" fill="white"/>
<path d="M144.916 330.431L136.089 330.864L140.261 307.878L148.655 309.807L144.916 330.431Z" fill="#FFB573"/>
<path d="M208.236 330.766H199.41L199.439 310.328H208.256L208.236 330.766Z" fill="#FFB573"/>
<path d="M198.573 329.743H209.328C209.501 329.74 209.669 329.799 209.803 329.909C209.936 330.019 210.026 330.173 210.056 330.343L211.473 338.215C211.505 338.41 211.494 338.609 211.44 338.799C211.387 338.989 211.293 339.165 211.164 339.315C211.036 339.464 210.877 339.584 210.697 339.666C210.518 339.748 210.323 339.79 210.125 339.789C206.662 339.73 204.143 339.524 199.784 339.524C197.107 339.524 188.959 339.799 185.299 339.799C181.639 339.799 181.265 336.139 182.79 335.804C189.678 334.318 194.864 332.272 197.117 330.313C197.516 329.952 198.034 329.748 198.573 329.743Z" fill="#263238"/>
<path opacity="0.2" d="M140.261 307.888L138.333 318.515L146.726 320.444L148.655 309.817L140.261 307.888Z" fill="black"/>
<path opacity="0.2" d="M208.256 310.328H199.429V320.857H208.256V310.328Z" fill="black"/>
<path d="M215.36 66.808C208.472 97.7942 210.302 128.377 209.564 134.999L162.46 131.89C157.54 94.4978 163.031 70.6456 166.15 60.8646C166.657 59.2501 167.616 57.8147 168.914 56.7283C170.211 55.6418 171.793 54.9499 173.471 54.7343C180.476 53.9666 187.53 53.7462 194.568 54.075C199.334 54.3601 204.063 55.0781 208.699 56.2201C210.984 56.7433 212.97 58.1519 214.218 60.1367C215.467 62.1216 215.878 64.5208 215.36 66.808Z" fill="#C2D4FE"/>
<path d="M201.161 33.0765C199.606 38.9116 197.766 49.2436 200.728 54.4686C201.191 55.2854 200.305 55.984 200.266 56.9286C200.157 59.8216 196.241 60.6875 189.235 60.7269C182.229 60.7663 179.228 57.8438 181.137 55.0886C181.429 54.6686 181.874 54.3792 182.377 54.2817C188.94 52.8155 189.068 47.6692 188.172 42.759L201.161 33.0765Z" fill="#FFB573"/>
<path opacity="0.4" d="M188.733 59.1229C190.574 61.6823 191.741 64.6634 192.128 67.7919C199.124 64.5054 202.46 56.5251 202.46 56.5251L200.354 54.2718C200.354 54.2718 192.581 55.7379 188.733 59.1229Z" fill="black"/>
<path opacity="0.4" d="M188.044 59.1525C185.468 61.2493 183.295 63.7966 181.629 66.6702C176.738 63.6395 178.352 55 178.352 55L182.337 54.2128C182.337 54.2128 184.118 55.8561 188.044 59.1525Z" fill="black"/>
<path d="M188.359 58.936L186.854 59.0836L184.305 60.7662C184.143 61.7797 184.323 62.8185 184.817 63.7182C186.297 64.0073 187.808 64.1098 189.314 64.0232C190.324 63.5354 191.129 62.7058 191.587 61.6813L189.717 59.2902L188.359 58.936Z" fill="#263238"/>
<path d="M188.359 58.936C190.25 61.3019 191.699 63.9883 192.64 66.867C199.636 63.5804 203.71 55.7281 203.71 55.7281L200.335 52.7761C200.335 52.7761 192.207 55.5707 188.359 58.936Z" fill="#C2D4FE"/>
<path d="M188.359 58.936C185.659 60.6396 183.297 62.8281 181.392 65.391C176.472 62.3701 178.352 54.2325 178.352 54.2325L182.337 53.4453C182.337 53.4453 184.443 55.6593 188.359 58.936Z" fill="#C2D4FE"/>
<path opacity="0.2" d="M195.867 37.0223L188.192 42.7492C188.424 43.9329 188.553 45.1347 188.576 46.3408C191.341 46.1342 195.316 43.3888 195.798 40.5155C196.029 39.3646 196.053 38.1815 195.867 37.0223Z" fill="black"/>
<path d="M202.568 23.4333C201.456 32.122 201.25 37.2093 196.546 41.4503C189.471 47.7381 178.972 43.0346 177.466 34.1884C176.108 26.2278 178.155 13.3571 186.923 10.4543C188.853 9.80367 190.918 9.65744 192.92 10.0295C194.923 10.4016 196.797 11.2797 198.365 12.5803C199.933 13.8809 201.142 15.5608 201.878 17.4603C202.613 19.3599 202.851 21.416 202.568 23.4333Z" fill="#FFB573"/>
<path d="M200.443 31.2856C198.475 29.3865 199.705 20.2943 200.699 17.6867C195.779 18.159 179.877 18.1393 180.477 13.7507C181.078 9.36207 186.864 5.63271 196.32 8.71262C204.192 11.2809 206.16 15.207 206.16 18.4149C206.278 25.0077 200.443 31.2856 200.443 31.2856Z" fill="#263238"/>
<path d="M205.619 31.384C204.684 33.1699 203.088 34.519 201.171 35.1429C198.662 35.9202 197.422 33.6078 198.13 31.1281C198.76 28.9043 200.836 25.8047 203.346 26.1196C205.855 26.4344 206.77 29.17 205.619 31.384Z" fill="#FFB573"/>
<path d="M135.459 315.819L150.052 319.037C150.052 319.037 164.241 263.431 168.453 236.253C169.742 227.987 172.733 216.189 175.459 203.781C178.893 188.135 183.213 171.21 186.755 157.956C190.495 143.993 193.269 133.956 193.269 133.956L162.46 131.919C162.46 131.919 148.124 204.647 145.231 231.421C142.21 259.249 135.459 315.819 135.459 315.819Z" fill="#263238"/>
<path opacity="0.2" d="M175.459 203.761C178.893 188.115 183.213 171.191 186.755 157.936L183.518 151.048C175.872 160.18 173.914 188.43 175.459 203.761Z" fill="black"/>
<path d="M177.142 132.864C177.142 132.864 183.518 207.185 185.998 232.917C188.753 261.099 196.143 318.83 196.143 318.83H210.962C210.962 318.83 211.631 257.35 208.994 230.132C208.62 176.622 209.555 135.009 209.555 135.009L177.142 132.864Z" fill="#263238"/>
<path d="M194.253 319.174H213.284V313.487L193.515 312.395L194.253 319.174Z" fill="#C2D4FE"/>
<path d="M133.55 315.76L150.938 319.598L152.178 313.979L133.974 309.394L133.55 315.76Z" fill="#C2D4FE"/>
<path d="M189.865 24.988C189.865 25.6965 189.402 26.2475 188.94 26.218C188.477 26.1885 188.133 25.5882 188.182 24.8798C188.231 24.1713 188.645 23.6202 189.107 23.6498C189.57 23.6793 189.914 24.2795 189.865 24.988Z" fill="#263238"/>
<path d="M181.835 24.496C181.835 25.2045 181.373 25.7555 180.91 25.726C180.448 25.6965 180.104 25.0962 180.153 24.3877C180.202 23.6793 180.615 23.1282 181.078 23.1577C181.54 23.1873 181.885 23.7481 181.835 24.496Z" fill="#263238"/>
<path d="M183.675 24.988C182.683 27.0989 181.409 29.0653 179.887 30.8329C181.058 32.0925 183.233 31.6989 183.233 31.6989L183.675 24.988Z" fill="#ED893E"/>
<path d="M186.106 33.7948C186.903 33.7498 187.684 33.5435 188.399 33.1883C189.114 32.8331 189.75 32.3364 190.268 31.7284C190.305 31.6899 190.325 31.6388 190.325 31.5857C190.325 31.5325 190.305 31.4814 190.268 31.443C190.228 31.4057 190.175 31.3849 190.121 31.3849C190.066 31.3849 190.013 31.4057 189.973 31.443C189.389 32.1097 188.656 32.6299 187.834 32.9614C187.012 33.293 186.123 33.4268 185.24 33.352C185.213 33.3492 185.185 33.3519 185.159 33.3599C185.133 33.3678 185.109 33.3809 185.088 33.3983C185.067 33.4156 185.049 33.437 185.037 33.4612C185.024 33.4853 185.016 33.5117 185.014 33.5389C185.011 33.5948 185.03 33.6495 185.067 33.6917C185.103 33.7339 185.155 33.7602 185.21 33.7652C185.508 33.7932 185.807 33.803 186.106 33.7948Z" fill="#263238"/>
<path d="M191.823 22.528C191.893 22.52 191.96 22.4964 192.02 22.4591C192.113 22.3986 192.179 22.3037 192.203 22.1951C192.227 22.0864 192.207 21.9727 192.148 21.8785C191.796 21.3124 191.315 20.8384 190.743 20.4961C190.171 20.1538 189.526 19.953 188.861 19.9105C188.761 19.9259 188.67 19.9765 188.604 20.0532C188.538 20.1299 188.502 20.2277 188.502 20.3287C188.502 20.4298 188.538 20.5275 188.604 20.6042C188.67 20.6809 188.761 20.7316 188.861 20.7469C189.386 20.7857 189.895 20.9487 190.345 21.2224C190.795 21.4961 191.173 21.8728 191.449 22.3213C191.486 22.3873 191.54 22.4417 191.606 22.4782C191.673 22.5147 191.748 22.532 191.823 22.528Z" fill="#263238"/>
<path d="M177.87 21.4751C177.938 21.4703 178.004 21.449 178.063 21.413C178.121 21.377 178.17 21.3274 178.204 21.2685C178.455 20.8112 178.811 20.4196 179.242 20.1255C179.673 19.8314 180.167 19.6432 180.684 19.576C180.794 19.566 180.895 19.5147 180.968 19.4324C181.042 19.3502 181.081 19.2432 181.078 19.1332C181.07 19.0227 181.019 18.9195 180.937 18.846C180.854 18.7724 180.746 18.7342 180.635 18.7396C179.974 18.8194 179.342 19.0568 178.793 19.4319C178.243 19.8069 177.792 20.3085 177.476 20.8945C177.423 20.9899 177.41 21.1024 177.439 21.2074C177.469 21.3125 177.539 21.4017 177.634 21.4554C177.708 21.4889 177.791 21.4958 177.87 21.4751Z" fill="#263238"/>
<path d="M195.592 331.278C196.375 331.259 197.154 331.153 197.914 330.963C197.954 330.954 197.99 330.933 198.018 330.903C198.046 330.873 198.065 330.836 198.071 330.796C198.082 330.757 198.08 330.716 198.066 330.679C198.052 330.642 198.026 330.61 197.993 330.589C197.678 330.382 194.903 328.621 193.899 329.132C193.791 329.189 193.699 329.274 193.633 329.378C193.567 329.481 193.53 329.6 193.525 329.723C193.49 329.926 193.507 330.134 193.574 330.328C193.641 330.523 193.757 330.697 193.909 330.835C194.402 331.172 194.997 331.329 195.592 331.278ZM197.314 330.668C195.808 330.973 194.657 330.914 194.194 330.51C194.09 330.417 194.011 330.298 193.966 330.165C193.921 330.032 193.912 329.89 193.939 329.752C193.939 329.595 194.017 329.536 194.076 329.506C194.598 329.251 196.192 329.998 197.314 330.668Z" fill="#C2D4FE"/>
<path d="M197.865 330.973C197.899 330.986 197.938 330.986 197.973 330.973C198.006 330.954 198.034 330.927 198.053 330.894C198.073 330.861 198.082 330.824 198.081 330.786C198.081 330.677 197.973 328.129 196.979 327.292C196.859 327.187 196.718 327.109 196.565 327.063C196.412 327.017 196.252 327.005 196.093 327.027C195.936 327.027 195.783 327.081 195.66 327.179C195.536 327.277 195.45 327.414 195.415 327.568C195.188 328.552 196.871 330.52 197.766 330.982C197.799 330.989 197.834 330.986 197.865 330.973ZM196.231 327.391C196.406 327.393 196.575 327.459 196.704 327.578C197.333 328.109 197.56 329.595 197.629 330.343C196.753 329.654 195.661 328.188 195.818 327.607C195.818 327.558 195.818 327.43 196.133 327.401H196.231V327.391Z" fill="#C2D4FE"/>
<path d="M134.771 326.978L145.122 329.93C145.288 329.977 145.431 330.081 145.528 330.222C145.625 330.364 145.67 330.536 145.654 330.707L144.886 338.648C144.861 338.843 144.794 339.031 144.69 339.198C144.586 339.365 144.447 339.508 144.282 339.616C144.118 339.724 143.932 339.796 143.737 339.826C143.543 339.856 143.344 339.843 143.154 339.789C139.838 338.805 137.477 337.91 133.314 336.719C130.736 335.991 122.343 332.98 119.282 330.894C116.222 328.808 118.023 325.59 119.469 326.18C125.974 328.818 130.549 328.394 133.245 327.164C133.716 326.924 134.256 326.858 134.771 326.978Z" fill="#263238"/>
<path d="M131.474 327.647C132.235 327.836 133.013 327.945 133.797 327.971C133.839 327.974 133.881 327.964 133.918 327.943C133.954 327.922 133.984 327.891 134.003 327.853C134.026 327.82 134.039 327.781 134.039 327.74C134.039 327.7 134.026 327.66 134.003 327.627C133.757 327.352 131.563 324.911 130.471 325.118C130.349 325.145 130.236 325.202 130.143 325.285C130.05 325.367 129.98 325.473 129.939 325.59C129.854 325.774 129.816 325.977 129.828 326.179C129.84 326.382 129.902 326.578 130.008 326.751C130.383 327.205 130.899 327.52 131.474 327.647ZM133.305 327.529C131.769 327.411 130.677 327.037 130.352 326.545C130.286 326.422 130.251 326.285 130.251 326.146C130.251 326.007 130.286 325.87 130.352 325.748C130.412 325.59 130.49 325.561 130.559 325.551C131.12 325.423 132.399 326.584 133.305 327.568V327.529Z" fill="#C2D4FE"/>
<path d="M133.747 327.962C133.786 327.972 133.827 327.972 133.865 327.962C133.903 327.952 133.938 327.932 133.966 327.905C133.994 327.877 134.013 327.842 134.023 327.804C134.023 327.706 134.633 325.226 133.914 324.144C133.827 324.012 133.712 323.9 133.578 323.815C133.444 323.73 133.294 323.675 133.137 323.652C132.985 323.609 132.822 323.619 132.676 323.68C132.53 323.74 132.408 323.848 132.33 323.986C131.838 324.872 132.94 327.194 133.659 327.922C133.684 327.943 133.715 327.956 133.747 327.962ZM133.147 324.075C133.315 324.122 133.459 324.231 133.55 324.38C134.023 325.069 133.826 326.564 133.698 327.332C133.039 326.436 132.409 324.734 132.714 324.213C132.714 324.163 132.803 324.055 133.078 324.094L133.147 324.075Z" fill="#C2D4FE"/>
<path d="M201.309 53.7011C201.204 53.6843 201.097 53.6915 200.996 53.7223C200.894 53.753 200.801 53.8064 200.723 53.8785C200.645 53.9506 200.585 54.0394 200.547 54.1382C200.508 54.237 200.493 54.3433 200.502 54.4489C200.846 59.7232 192.63 69.2089 190.662 97.617C189.491 114.896 188.418 168.77 189.206 196.794C189.217 197.162 189.312 197.522 189.484 197.848C189.655 198.173 189.899 198.455 190.196 198.673C190.493 198.89 190.835 199.036 191.197 199.101C191.559 199.166 191.932 199.148 192.285 199.048C206.809 194.994 213.668 204.824 216.462 193.232C216.315 179.348 212.113 129.499 213.195 117.681C214.278 105.863 218.775 73.755 219.896 65.1942C220.89 57.7552 205.373 54.4391 201.309 53.7011Z" fill="#C2D4FE"/>
<path opacity="0.7" d="M201.309 53.7011C201.204 53.6843 201.097 53.6915 200.996 53.7223C200.894 53.753 200.801 53.8064 200.723 53.8785C200.645 53.9506 200.585 54.0394 200.547 54.1382C200.508 54.237 200.493 54.3433 200.502 54.4489C200.846 59.7232 192.63 69.2089 190.662 97.617C189.491 114.896 188.418 168.77 189.206 196.794C189.217 197.162 189.312 197.522 189.484 197.848C189.655 198.173 189.899 198.455 190.196 198.673C190.493 198.89 190.835 199.036 191.197 199.101C191.559 199.166 191.932 199.148 192.285 199.048C206.809 194.994 213.668 204.824 216.462 193.232C216.315 179.348 212.113 129.499 213.195 117.681C214.278 105.863 218.775 73.755 219.896 65.1942C220.89 57.7552 205.373 54.4391 201.309 53.7011Z" fill="white"/>
<path opacity="0.2" d="M210.883 77.7796C210.243 82.1682 209.997 99.8999 214.219 108.431C214.927 102.527 215.852 95.5113 216.748 88.7512L210.883 77.7796Z" fill="#C2D4FE"/>
<path d="M216.915 154.463L212.723 154.955L209.013 161.577C208.81 161.935 208.684 162.333 208.643 162.743C208.603 163.153 208.648 163.567 208.777 163.958L210.115 168.032C210.343 168.729 210.821 169.317 211.458 169.681C212.094 170.045 212.844 170.158 213.559 170L215.429 169.606C216.116 169.467 216.731 169.087 217.164 168.535C217.597 167.984 217.819 167.296 217.791 166.595L217.673 162.974C217.673 162.974 220.999 155.289 216.915 154.463Z" fill="#FFB573"/>
<path d="M219.218 61.8879C220.556 65.8239 221.796 69.7107 223.026 73.6467C224.256 77.5827 225.486 81.5187 226.647 85.4547C227.808 89.3907 228.93 93.4153 229.963 97.5186C230.475 99.5751 230.947 101.651 231.399 103.826C231.606 104.918 231.813 106.03 231.98 107.211C232.059 107.821 232.147 108.382 232.196 109.061L232.285 110.045L232.334 111.157C232.354 111.53 232.354 111.905 232.334 112.279C232.334 112.672 232.334 113.046 232.285 113.351L232.196 114.335L232.088 115.221C231.95 116.411 231.773 117.494 231.596 118.576C231.242 120.721 230.829 122.788 230.406 124.834C229.559 128.928 228.615 132.933 227.66 136.918C226.706 140.903 225.692 144.878 224.708 148.844L221.756 160.741L207.508 156.873C209.712 149.188 211.719 141.366 213.579 133.592C214.484 129.656 215.331 125.799 216.088 121.951C216.462 119.983 216.817 118.114 217.072 116.264C217.22 115.339 217.338 114.424 217.417 113.597C217.493 112.944 217.52 112.286 217.496 111.629V111.216L217.427 110.684C217.427 110.35 217.309 109.907 217.25 109.523C217.112 108.697 216.935 107.821 216.738 106.926C216.334 105.135 215.852 103.285 215.331 101.425C214.347 97.6957 213.097 93.9171 211.828 90.1583C209.318 82.6405 206.494 75.0735 203.582 67.7132L219.218 61.8879Z" fill="#C2D4FE"/>
<path opacity="0.7" d="M219.218 61.8879C220.556 65.8239 221.796 69.7107 223.026 73.6467C224.256 77.5827 225.486 81.5187 226.647 85.4547C227.808 89.3907 228.93 93.4153 229.963 97.5186C230.475 99.5751 230.947 101.651 231.399 103.826C231.606 104.918 231.813 106.03 231.98 107.211C232.059 107.821 232.147 108.382 232.196 109.061L232.285 110.045L232.334 111.157C232.354 111.53 232.354 111.905 232.334 112.279C232.334 112.672 232.334 113.046 232.285 113.351L232.196 114.335L232.088 115.221C231.95 116.411 231.773 117.494 231.596 118.576C231.242 120.721 230.829 122.788 230.406 124.834C229.559 128.928 228.615 132.933 227.66 136.918C226.706 140.903 225.692 144.878 224.708 148.844L221.756 160.741L207.508 156.873C209.712 149.188 211.719 141.366 213.579 133.592C214.484 129.656 215.331 125.799 216.088 121.951C216.462 119.983 216.817 118.114 217.072 116.264C217.22 115.339 217.338 114.424 217.417 113.597C217.493 112.944 217.52 112.286 217.496 111.629V111.216L217.427 110.684C217.427 110.35 217.309 109.907 217.25 109.523C217.112 108.697 216.935 107.821 216.738 106.926C216.334 105.135 215.852 103.285 215.331 101.425C214.347 97.6957 213.097 93.9171 211.828 90.1583C209.318 82.6405 206.494 75.0735 203.582 67.7132L219.218 61.8879Z" fill="white"/>
<path d="M182.17 52.9631C182.386 52.9615 182.599 53.0214 182.782 53.1358C182.966 53.2502 183.113 53.4145 183.207 53.6093C183.301 53.8042 183.337 54.0218 183.312 54.2366C183.287 54.4515 183.202 54.6548 183.065 54.8229C180.723 57.5387 179.247 61.2681 176.473 73.2335C173.127 87.6688 166.003 160.298 164.665 195.889C164.658 196.185 164.587 196.476 164.457 196.741C164.328 197.007 164.142 197.242 163.913 197.429C163.684 197.616 163.417 197.751 163.13 197.825C162.844 197.899 162.545 197.91 162.254 197.857C155.307 196.578 150.544 199.943 149.786 195.486C148.95 190.566 152.069 143.57 157.904 121.469C156.989 101.868 160.296 62.5473 166.898 57.3222C170.48 54.4194 178.096 53.032 182.17 52.9631Z" fill="#C2D4FE"/>
<path opacity="0.7" d="M182.17 52.9631C182.386 52.9615 182.599 53.0214 182.782 53.1358C182.966 53.2502 183.113 53.4145 183.207 53.6093C183.301 53.8042 183.337 54.0218 183.312 54.2366C183.287 54.4515 183.202 54.6548 183.065 54.8229C180.723 57.5387 179.247 61.2681 176.473 73.2335C173.127 87.6688 166.003 160.298 164.665 195.889C164.658 196.185 164.587 196.476 164.457 196.741C164.328 197.007 164.142 197.242 163.913 197.429C163.684 197.616 163.417 197.751 163.13 197.825C162.844 197.899 162.545 197.91 162.254 197.857C155.307 196.578 150.544 199.943 149.786 195.486C148.95 190.566 152.069 143.57 157.904 121.469C156.989 101.868 160.296 62.5473 166.898 57.3222C170.48 54.4194 178.096 53.032 182.17 52.9631Z" fill="white"/>
<path d="M185.998 62.7145C185.998 62.7145 177.496 86.5962 174.505 106.611C174.268 112.052 176.856 122.591 178.952 127.186C183.331 117.651 186.067 112.033 186.5 106.611C187.198 98.4534 188.349 62.872 188.349 62.872L185.998 62.7145Z" fill="#263238"/>
<path d="M203.788 91.1226C203.702 91.1198 203.619 91.0887 203.553 91.0343C203.486 90.9798 203.439 90.9049 203.419 90.8211C203.399 90.7373 203.407 90.6492 203.441 90.5704C203.476 90.4915 203.536 90.4263 203.611 90.3846L205.225 89.5384C206.731 88.7635 207.966 87.5479 208.764 86.0536C209.562 84.5593 209.886 82.8573 209.692 81.1744L207.941 65.3123C207.812 64.1299 207.288 63.0254 206.455 62.1769C205.621 61.3284 204.526 60.7854 203.346 60.6354C202.166 60.4853 200.97 60.737 199.951 61.3498C198.931 61.9627 198.148 62.901 197.727 64.0134L192.059 78.921C191.449 80.501 191.334 82.2292 191.729 83.8761C192.125 85.523 193.012 87.0106 194.273 88.1411L195.631 89.3711C195.703 89.4447 195.744 89.5436 195.744 89.6466C195.744 89.7497 195.703 89.8486 195.631 89.9222C195.557 89.9943 195.459 90.0347 195.356 90.0347C195.253 90.0347 195.154 89.9943 195.08 89.9222L193.722 88.702C192.348 87.4613 191.384 85.8324 190.957 84.0311C190.53 82.2299 190.66 80.3414 191.331 78.616L197.048 63.7379C197.536 62.4667 198.437 61.3962 199.606 60.6977C200.775 59.9992 202.144 59.7133 203.495 59.8857C204.846 60.0581 206.099 60.6788 207.055 61.6484C208.011 62.6181 208.614 63.8805 208.767 65.2336L210.519 81.0858C210.726 82.9305 210.366 84.7944 209.487 86.4294C208.608 88.0643 207.252 89.3925 205.599 90.237L203.985 91.0734C203.927 91.1111 203.858 91.1284 203.788 91.1226Z" fill="#263238"/>
<path d="M208.669 68.776C208.575 68.7768 208.484 68.7432 208.414 68.6815C208.343 68.6199 208.297 68.5345 208.285 68.4414C208.056 67.1657 207.409 66.0027 206.444 65.1365C205.48 64.2704 204.255 63.7505 202.962 63.6592C200.777 63.3837 197.806 64.0725 196.615 66.9457C196.598 66.9967 196.571 67.0436 196.535 67.0835C196.499 67.1235 196.455 67.1557 196.406 67.1781C196.357 67.2006 196.305 67.2128 196.251 67.214C196.197 67.2152 196.144 67.2054 196.094 67.1852C196.044 67.1651 195.999 67.1349 195.961 67.0966C195.924 67.0584 195.894 67.0128 195.875 66.9627C195.855 66.9126 195.846 66.8591 195.849 66.8054C195.851 66.7517 195.864 66.699 195.887 66.6505C196.552 65.3638 197.597 64.3126 198.88 63.6395C200.163 62.9664 201.621 62.7039 203.058 62.8876C204.495 63.0712 205.841 63.6921 206.913 64.6662C207.985 65.6403 208.732 66.9204 209.053 68.3332C209.067 68.4336 209.041 68.5355 208.98 68.6167C208.919 68.6978 208.828 68.7515 208.728 68.7662L208.669 68.776Z" fill="#263238"/>
<path d="M203.375 60.6383C203.324 60.6359 203.274 60.6231 203.227 60.6008C203.181 60.5786 203.14 60.5472 203.106 60.5087C203.072 60.4702 203.046 60.4252 203.03 60.3765C203.013 60.3278 203.007 60.2763 203.011 60.2251C203.129 58.3063 202.854 54.8131 201.043 53.9078C200.95 53.8595 200.881 53.7764 200.849 53.6767C200.818 53.5771 200.827 53.4691 200.876 53.3764C200.924 53.2838 201.007 53.2141 201.107 53.1827C201.206 53.1514 201.314 53.1609 201.407 53.2091C204.025 54.5572 203.788 59.6937 203.749 60.2743C203.744 60.3709 203.703 60.4621 203.633 60.5296C203.564 60.5972 203.472 60.636 203.375 60.6383Z" fill="#263238"/>
<path d="M196.241 89.7646C196.143 90.5026 195.68 91.0438 195.198 90.975C194.716 90.9061 194.401 90.2763 194.499 89.5482C194.598 88.82 195.05 88.269 195.533 88.3378C196.015 88.4067 196.33 89.0365 196.241 89.7646Z" fill="#263238"/>
<path d="M173.363 73.8141C172.743 75.3786 171.395 76.3233 170.411 75.9198C169.427 75.5164 169.043 73.9519 169.663 72.3479C170.283 70.744 171.631 69.8387 172.615 70.2422C173.599 70.6456 173.973 72.2495 173.363 73.8141Z" fill="#263238"/>
<path d="M170.126 72.8005H170.047C169.946 72.7792 169.857 72.7187 169.799 72.6321C169.742 72.5455 169.722 72.4398 169.742 72.3381C171.041 65.8732 176.414 55.6101 181.147 52.6581C181.19 52.621 181.24 52.5937 181.294 52.5779C181.349 52.5622 181.406 52.5584 181.462 52.5668C181.518 52.5753 181.572 52.5957 181.619 52.6268C181.667 52.6579 181.707 52.6989 181.737 52.747C181.767 52.7951 181.787 52.8491 181.794 52.9053C181.801 52.9616 181.796 53.0188 181.78 53.0729C181.763 53.1271 181.734 53.177 181.696 53.2192C181.659 53.2614 181.612 53.2949 181.56 53.3174C176.984 56.2005 171.779 66.1093 170.51 72.4758C170.493 72.5662 170.446 72.6481 170.376 72.7074C170.306 72.7667 170.218 72.7997 170.126 72.8005Z" fill="#263238"/>
<path d="M174.485 74.1388C174.032 75.4868 172.871 76.3232 171.887 75.9985C170.903 75.6738 170.46 74.306 170.903 72.9481C171.346 71.5902 172.517 70.7636 173.501 71.0884C174.485 71.4131 174.937 72.7808 174.485 74.1388Z" fill="white"/>
<path d="M174.554 74.2765C173.954 75.9395 172.842 77.0711 172.084 76.7956C171.326 76.5201 171.198 74.9457 171.808 73.2729C172.418 71.6001 173.521 70.4783 174.278 70.7538C175.036 71.0293 175.164 72.6037 174.554 74.2765Z" fill="#263238"/>
<path d="M204.664 90.8471C204.576 91.5753 204.103 92.1165 203.621 92.0575C203.139 91.9984 202.824 91.349 202.922 90.6208C203.021 89.8926 203.483 89.3514 203.965 89.4105C204.448 89.4695 204.762 90.1091 204.664 90.8471Z" fill="#263238"/>
<path d="M260.457 48.2104C263.743 57.1943 255.006 61.7109 249.279 74.9457C243.552 88.1805 257.367 103.964 278.572 104.308C299.778 104.653 300.447 84.3429 297.16 69.7698C293.874 55.1968 300.742 52.8254 299.286 41.6963C297.416 27.0741 276.349 15.9942 267.985 29.416C260.545 28.7174 257.584 40.3581 260.457 48.2104Z" fill="#263238"/>
<path d="M323.266 169.144V168.003C323.246 167.455 323.108 166.918 322.862 166.428L319.3 159.402L315.128 158.615C312.176 161.793 315.128 168.13 315.128 168.13V169.144C315.128 169.974 315.4 170.782 315.9 171.444C316.401 172.106 317.104 172.587 317.903 172.814L318.464 172.982C319.041 173.134 319.647 173.149 320.231 173.026C320.816 172.902 321.363 172.644 321.83 172.271C322.297 171.898 322.67 171.421 322.919 170.878C323.168 170.335 323.287 169.741 323.266 169.144Z" fill="#FFC3BD"/>
<path d="M305.583 78.7635L307.118 89.5285L308.732 100.264C309.263 103.856 309.824 107.427 310.395 111.009L312.097 121.676L312.304 122.729C312.373 123.073 312.491 123.516 312.579 123.9L312.875 125.11L313.219 126.36C313.662 128.013 314.203 129.725 314.675 131.417C315.659 134.812 316.791 138.246 317.903 141.661C320.166 148.48 322.528 155.329 325.047 162.059L311.133 166.979L304.166 146.177C303.015 142.704 301.844 139.23 300.732 135.688C300.181 133.907 299.63 132.146 299.109 130.305L298.705 128.938L298.321 127.511C298.193 127.019 298.056 126.586 297.938 126.045L297.573 124.431L295.517 113.607C294.861 110.038 294.175 106.47 293.46 102.901L291.355 92.1952L289.16 81.568L305.583 78.7635Z" fill="#C1CEEC"/>
<path opacity="0.6" d="M305.583 78.7635L307.118 89.5285L308.732 100.264C309.263 103.856 309.824 107.427 310.395 111.009L312.097 121.676L312.304 122.729C312.373 123.073 312.491 123.516 312.579 123.9L312.875 125.11L313.219 126.36C313.662 128.013 314.203 129.725 314.675 131.417C315.659 134.812 316.791 138.246 317.903 141.661C320.166 148.48 322.528 155.329 325.047 162.059L311.133 166.979L304.166 146.177C303.015 142.704 301.844 139.23 300.732 135.688C300.181 133.907 299.63 132.146 299.109 130.305L298.705 128.938L298.321 127.511C298.193 127.019 298.056 126.586 297.938 126.045L297.573 124.431L295.517 113.607C294.861 110.038 294.175 106.47 293.46 102.901L291.355 92.1952L289.16 81.568L305.583 78.7635Z" fill="white"/>
<path d="M303.369 77.937C303.832 83.1818 303.418 96.2296 298.154 128.574H261.746C262.327 114.522 262.366 105.568 256.334 78.7538C256.197 78.1508 256.185 77.5261 256.299 76.9183C256.412 76.3105 256.649 75.7325 256.995 75.2198C257.341 74.7072 257.788 74.2708 258.309 73.9377C258.83 73.6045 259.414 73.3816 260.024 73.2827C263.579 72.6988 267.162 72.3079 270.759 72.1117C276.269 71.7177 281.8 71.7177 287.31 72.1117C291.837 72.525 296.747 73.3418 299.719 73.883C300.687 74.0667 301.568 74.5627 302.227 75.2949C302.886 76.027 303.287 76.9551 303.369 77.937Z" fill="#263238"/>
<path d="M272.363 53.4748C273.406 58.7982 274.449 68.5595 270.72 72.1118C270.72 72.1118 275.384 77.7796 282.528 77.7796C289.672 77.7796 287.281 72.1118 287.281 72.1118C281.377 70.6948 281.495 66.2865 282.528 62.1537L272.363 53.4748Z" fill="#FFC3BD"/>
<path opacity="0.2" d="M276.506 57.0172L282.518 62.1438C282.263 63.1113 282.092 64.099 282.007 65.0958C279.733 64.7711 276.171 62.8326 275.679 60.3628C275.453 59.1918 276.309 57.5683 276.506 57.0172Z" fill="black"/>
<path d="M266.095 43.0247C267.483 51.8217 267.886 55.5707 272.787 59.6838C280.166 65.8732 290.666 62.2422 291.935 53.2091C293.077 45.0813 290.607 32.0531 281.613 29.3668C279.632 28.7641 277.529 28.6778 275.505 29.1161C273.481 29.5544 271.602 30.5027 270.048 31.871C268.493 33.2393 267.314 34.9822 266.622 36.9343C265.93 38.8864 265.749 40.9828 266.095 43.0247Z" fill="#FFC3BD"/>
<path d="M267.561 49.3617C272.6 44.3728 274.331 37.4356 273.859 34.6017C278.71 35.9498 282.272 34.0408 282.056 33.2143C285.48 36.5599 291.689 39.2068 290.99 35.6054C290.292 32.004 285.697 25.362 276.112 27.7334C266.528 30.1048 262.838 39.9448 262.976 43.9399C263.114 47.9349 267.561 49.3617 267.561 49.3617Z" fill="#263238"/>
<path d="M278.72 44.0186C278.789 44.7467 279.222 45.2879 279.704 45.2486C280.186 45.2092 280.501 44.5795 280.432 43.8611C280.363 43.1428 279.92 42.5918 279.448 42.6311C278.976 42.6705 278.72 43.3003 278.72 44.0186Z" fill="#263238"/>
<path d="M286.897 43.2412C286.966 43.9595 287.409 44.5106 287.881 44.4614C288.353 44.4122 288.678 43.8021 288.609 43.0838C288.54 42.3655 288.098 41.8144 287.625 41.8538C287.153 41.8932 286.828 42.5229 286.897 43.2412Z" fill="#263238"/>
<path d="M287.428 41.9127L289.111 41.2535C289.111 41.2535 288.344 42.6901 287.428 41.9127Z" fill="#263238"/>
<path d="M284.516 44.7762C285.311 46.3602 286.321 47.827 287.517 49.1354C287.175 49.4317 286.772 49.6503 286.337 49.776C285.902 49.9017 285.445 49.9316 284.998 49.8635L284.516 44.7762Z" fill="#ED847E"/>
<path d="M281.337 53.032C281.695 53.0564 282.053 53.0564 282.41 53.032C282.466 53.0246 282.516 52.9958 282.551 52.9517C282.586 52.9077 282.603 52.8518 282.597 52.7958C282.596 52.7681 282.589 52.741 282.577 52.7161C282.564 52.6913 282.547 52.6693 282.526 52.6517C282.504 52.634 282.479 52.6211 282.453 52.6137C282.426 52.6063 282.398 52.6047 282.371 52.6089C281.475 52.7125 280.568 52.6045 279.722 52.2934C278.876 51.9824 278.115 51.477 277.5 50.818C277.462 50.7835 277.413 50.7636 277.362 50.762C277.31 50.7603 277.26 50.7769 277.22 50.8088C277.18 50.8407 277.152 50.8859 277.142 50.9362C277.132 50.9866 277.14 51.0388 277.165 51.0836C277.698 51.6679 278.34 52.1409 279.056 52.4753C279.773 52.8097 280.548 52.9989 281.337 53.032Z" fill="#263238"/>
<path d="M264.147 50.1784C264.804 51.7712 266.063 53.0406 267.65 53.711C269.756 54.5769 271.084 52.727 270.72 50.631C270.395 48.663 268.9 45.9374 266.676 45.9767C266.192 46.0004 265.721 46.1428 265.305 46.3916C264.889 46.6403 264.54 46.9877 264.29 47.4029C264.041 47.8182 263.897 48.2887 263.872 48.7727C263.847 49.2568 263.941 49.7395 264.147 50.1784Z" fill="#FFC3BD"/>
<path d="M275.916 40.24C276 40.2699 276.092 40.2727 276.179 40.248C276.265 40.2233 276.342 40.1724 276.398 40.1022C277.638 38.577 280.166 38.7246 280.186 38.7246C280.298 38.7302 280.407 38.6923 280.492 38.6189C280.576 38.5456 280.629 38.4424 280.639 38.331C280.644 38.2752 280.638 38.2188 280.621 38.1653C280.604 38.1119 280.576 38.0625 280.539 38.0201C280.502 37.9778 280.457 37.9433 280.407 37.919C280.356 37.8946 280.301 37.8808 280.245 37.8784C280.127 37.8784 277.244 37.7013 275.738 39.5709C275.668 39.659 275.635 39.7709 275.646 39.883C275.657 39.995 275.712 40.0984 275.797 40.1711L275.916 40.24Z" fill="#263238"/>
<path d="M289.859 39.3446C289.952 39.3503 290.045 39.3249 290.122 39.2724C290.199 39.2199 290.257 39.1433 290.286 39.0545C290.316 38.9658 290.315 38.8698 290.284 38.7816C290.252 38.6935 290.193 38.6181 290.115 38.5672C289.564 38.1786 288.929 37.9268 288.261 37.8326C287.594 37.7385 286.914 37.8048 286.277 38.026C286.174 38.0715 286.092 38.1556 286.05 38.2604C286.007 38.3652 286.008 38.4824 286.051 38.5869C286.072 38.639 286.104 38.6863 286.144 38.726C286.184 38.7656 286.231 38.7969 286.284 38.818C286.336 38.8391 286.392 38.8495 286.448 38.8487C286.504 38.8479 286.56 38.8358 286.612 38.8132C287.117 38.6448 287.656 38.5989 288.183 38.6793C288.71 38.7597 289.21 38.9641 289.642 39.2757C289.707 39.3175 289.782 39.3413 289.859 39.3446Z" fill="#263238"/>
<path d="M320.776 332.281L329.839 331.848L327.152 311.381L318.1 311.824L320.776 332.281Z" fill="#FFC3BD"/>
<g opacity="0.2">
<path opacity="0.2" d="M327.153 311.391L328.54 321.939L319.477 322.372L318.09 311.824L327.153 311.391Z" fill="black"/>
</g>
<path d="M298.154 128.574C298.154 128.574 309.558 197.7 314.203 224.651C319.044 252.676 329.947 318.633 329.947 318.633L317.962 320.601C317.962 320.601 301.805 254.575 295.33 227.121C288.304 197.158 271.281 156.982 271.458 128.652L298.154 128.574Z" fill="#4A607A"/>
<path opacity="0.2" d="M279.842 149.789C278.13 147.299 274.833 143.806 272.304 140.933C274.597 158.546 281.16 178.984 287.153 198.231C288.747 183.569 287.842 161.331 279.842 149.789Z" fill="black"/>
<path d="M264.865 330.894H273.839L274.44 310.112H265.456L264.865 330.894Z" fill="#FFC3BD"/>
<path d="M274.262 329.536H264.176C264.002 329.534 263.833 329.596 263.7 329.71C263.568 329.825 263.482 329.983 263.458 330.156L262.307 338.126C262.286 338.329 262.308 338.533 262.371 338.727C262.435 338.92 262.538 339.098 262.674 339.249C262.81 339.4 262.977 339.521 263.163 339.604C263.349 339.687 263.55 339.73 263.753 339.73C267.266 339.661 268.959 339.455 273.396 339.455C276.122 339.455 281.761 339.74 285.529 339.74C289.298 339.74 289.465 336.021 287.93 335.676C280.895 334.171 278.09 332.085 275.758 330.087C275.338 329.736 274.81 329.541 274.262 329.536Z" fill="#263238"/>
<g opacity="0.2">
<path opacity="0.2" d="M274.43 310.122L274.125 320.837H265.151L265.456 310.122H274.43Z" fill="black"/>
</g>
<path d="M287.911 128.574C287.911 128.574 284.27 198.585 281.81 225.842C279.242 254.201 276.152 318.466 276.152 318.466H264.009C264.009 318.466 261.844 254.447 262.691 226.482C263.606 195.978 256.275 156.903 261.224 128.574H287.911Z" fill="#4A607A"/>
<path d="M262.956 318.899L277.195 319.165L277.411 310.486L262.897 311.391L262.956 318.899Z" fill="#263238"/>
<path d="M277.628 331.14C278.394 331.21 279.162 331.016 279.802 330.589C279.947 330.46 280.058 330.297 280.125 330.115C280.192 329.933 280.213 329.738 280.186 329.546C280.179 329.43 280.143 329.318 280.081 329.22C280.019 329.122 279.933 329.041 279.832 328.985C278.73 328.375 275.148 330.205 274.745 330.422C274.707 330.443 274.677 330.475 274.657 330.513C274.638 330.552 274.631 330.595 274.636 330.638C274.642 330.682 274.661 330.722 274.691 330.754C274.721 330.786 274.761 330.807 274.804 330.815C275.732 331.013 276.678 331.122 277.628 331.14ZM279.232 329.28C279.367 329.277 279.502 329.304 279.625 329.359C279.667 329.38 279.701 329.413 279.726 329.453C279.75 329.493 279.763 329.538 279.763 329.585C279.785 329.71 279.773 329.838 279.73 329.957C279.687 330.076 279.613 330.182 279.517 330.264C278.976 330.756 277.5 330.845 275.512 330.51C276.672 329.891 277.931 329.474 279.232 329.28Z" fill="#407BFF"/>
<path d="M274.843 330.825H274.932C276.004 330.343 278.12 328.404 277.953 327.391C277.953 327.145 277.746 326.85 277.156 326.791C276.944 326.766 276.73 326.786 276.527 326.849C276.324 326.911 276.136 327.016 275.975 327.155C274.853 328.089 274.646 330.51 274.636 330.608C274.633 330.646 274.639 330.684 274.654 330.719C274.67 330.753 274.694 330.783 274.725 330.805C274.762 330.821 274.803 330.828 274.843 330.825ZM276.988 327.184H277.116C277.5 327.184 277.529 327.371 277.529 327.43C277.638 328.04 276.201 329.556 275.109 330.215C275.193 329.197 275.592 328.231 276.25 327.45C276.456 327.275 276.718 327.18 276.988 327.184Z" fill="#407BFF"/>
<path d="M329.731 329.536H319.645C319.564 329.531 319.483 329.544 319.407 329.574C319.332 329.604 319.264 329.65 319.208 329.709C319.153 329.769 319.111 329.839 319.086 329.916C319.061 329.994 319.054 330.075 319.064 330.156L319.576 338.126C319.635 338.559 319.846 338.957 320.17 339.25C320.494 339.544 320.91 339.714 321.347 339.73C324.85 339.661 326.503 339.455 330.931 339.455C333.667 339.455 339.364 339.74 343.133 339.74C346.901 339.74 346.321 336.021 344.687 335.676C337.337 334.171 334.129 332.085 331.344 330.087C330.875 329.743 330.312 329.55 329.731 329.536Z" fill="#263238"/>
<path d="M333.096 331.14C333.866 331.21 334.636 331.016 335.28 330.589C335.424 330.459 335.533 330.296 335.6 330.114C335.667 329.933 335.689 329.738 335.664 329.546C335.655 329.429 335.617 329.317 335.554 329.219C335.49 329.121 335.403 329.041 335.3 328.985C334.198 328.375 330.626 330.205 330.223 330.422C330.183 330.441 330.151 330.473 330.13 330.511C330.109 330.55 330.1 330.594 330.105 330.638C330.113 330.681 330.133 330.72 330.162 330.751C330.192 330.782 330.23 330.805 330.272 330.815C331.201 331.013 332.146 331.122 333.096 331.14ZM334.7 329.28C334.835 329.274 334.97 329.301 335.093 329.359C335.136 329.38 335.172 329.412 335.198 329.452C335.224 329.492 335.239 329.538 335.241 329.585C335.258 329.71 335.244 329.837 335.202 329.955C335.159 330.073 335.088 330.179 334.995 330.264C334.444 330.756 332.968 330.845 330.98 330.51C332.141 329.892 333.399 329.476 334.7 329.28Z" fill="#407BFF"/>
<path d="M330.321 330.825H330.41C331.472 330.343 333.588 328.404 333.421 327.391C333.421 327.145 333.214 326.85 332.624 326.791C332.414 326.766 332.201 326.786 332 326.849C331.798 326.912 331.612 327.016 331.453 327.155C330.321 328.089 330.114 330.51 330.104 330.609C330.103 330.646 330.111 330.683 330.126 330.717C330.141 330.751 330.164 330.781 330.193 330.805C330.234 330.822 330.277 330.829 330.321 330.825ZM332.456 327.184H332.584C332.968 327.184 332.997 327.371 333.007 327.43C333.106 328.04 331.669 329.556 330.577 330.215C330.665 329.198 331.063 328.233 331.718 327.45C331.925 327.276 332.186 327.182 332.456 327.184Z" fill="#407BFF"/>
<path d="M316.958 321.162L331.02 318.899L329.435 311.381L315.502 314.668L316.958 321.162Z" fill="#263238"/>
<path d="M279.281 42.6902L280.964 42.0309C280.964 42.0309 280.206 43.4675 279.281 42.6902Z" fill="#263238"/>
<path d="M261.156 126.438L260.231 129.705C260.103 129.951 260.398 130.217 260.821 130.217H298.331C298.666 130.217 298.931 130.05 298.951 129.843L299.286 126.586C299.286 126.36 299.02 126.163 298.666 126.163H261.756C261.64 126.153 261.525 126.173 261.419 126.221C261.314 126.27 261.223 126.344 261.156 126.438Z" fill="#263238"/>
<path d="M266.243 130.561H265.259C265.062 130.561 264.914 130.463 264.924 130.345L265.387 126.104C265.387 125.976 265.574 125.878 265.771 125.878H266.755C266.951 125.878 267.099 125.976 267.089 126.104L266.617 130.345C266.607 130.463 266.44 130.561 266.243 130.561Z" fill="#407BFF"/>
<path d="M295.556 130.561H294.572C294.376 130.561 294.218 130.463 294.238 130.345L294.7 126.104C294.7 125.976 294.887 125.878 295.084 125.878H296.068C296.265 125.878 296.412 125.976 296.403 126.104L295.94 130.345C295.92 130.463 295.753 130.561 295.556 130.561Z" fill="#407BFF"/>
<path d="M280.954 130.561H279.97C279.773 130.561 279.625 130.463 279.635 130.345L280.098 126.104C280.098 125.976 280.285 125.878 280.481 125.878H281.465C281.662 125.878 281.81 125.976 281.79 126.104L281.328 130.345C281.328 130.463 281.15 130.561 280.954 130.561Z" fill="#407BFF"/>
<path d="M269.146 71.8166C263.429 72.3381 254.691 71.2557 254.956 80.0231C255.222 88.7906 253.52 112.013 253.972 122.886C254.425 133.759 251.591 204.165 256.177 224.573C256.983 228.164 286.602 227.702 290.184 227.357V224.12C290.184 224.12 311.704 221.227 317.027 222.152C316.565 209.891 304.648 147.958 304.186 130.561C303.723 113.164 305.682 83.2703 305.564 78.5275C305.445 73.7846 296.019 71.6985 290.243 71.8166C291.522 76.097 288.698 84.1362 284.181 93.1005C273.072 82.2765 269.795 76.9038 269.146 71.8166Z" fill="#D2E0FF"/>
<path opacity="0.7" d="M269.146 71.8166C263.429 72.3381 254.691 71.2557 254.956 80.0231C255.222 88.7906 253.52 112.013 253.972 122.886C254.425 133.759 251.591 204.165 256.177 224.573C256.983 228.164 286.602 227.702 290.184 227.357V224.12C290.184 224.12 311.704 221.227 317.027 222.152C316.565 209.891 304.648 147.958 304.186 130.561C303.723 113.164 305.682 83.2703 305.564 78.5275C305.445 73.7846 296.019 71.6985 290.243 71.8166C291.522 76.097 288.698 84.1362 284.181 93.1005C273.072 82.2765 269.795 76.9038 269.146 71.8166Z" fill="white"/>
<path opacity="0.2" d="M258.263 92.6085L254.602 95.1964C254.317 102.773 253.933 111.265 253.894 117.828C257.298 110.301 259.217 99.4374 258.263 92.6085Z" fill="#407BFF"/>
<path d="M269.923 84.7463C269.737 85.0225 269.537 85.2885 269.323 85.5434L269.116 85.7795L269.008 85.8976L268.811 86.1043L268.418 86.5274L267.63 87.4031C267.099 87.9837 266.587 88.5839 266.076 89.194C265.052 90.4142 264.068 91.6573 263.124 92.9234C261.194 95.4518 259.397 98.0794 257.741 100.795C254.487 105.809 252.136 111.354 250.794 117.179C250.546 118.478 250.392 119.794 250.332 121.115C250.393 121.772 250.583 122.411 250.892 122.994C252.142 125.639 253.644 128.157 255.38 130.512C257.2 133.11 259.266 135.639 261.382 138.138C262.445 139.398 263.547 140.618 264.659 141.828C265.771 143.039 266.932 144.278 268.014 145.351L257.407 155.604C256.118 154.197 254.976 152.918 253.785 151.57L250.312 147.506C248.009 144.78 245.795 141.946 243.611 138.975C241.239 135.836 239.189 132.467 237.49 128.918C236.994 127.819 236.57 126.688 236.221 125.533C236.016 124.845 235.855 124.145 235.739 123.437C235.663 123.031 235.611 122.62 235.581 122.207C235.542 121.775 235.525 121.342 235.532 120.908C235.556 118.795 235.736 116.687 236.073 114.601C236.755 110.66 237.857 106.804 239.36 103.098C240.775 99.5893 242.418 96.1773 244.28 92.884C246.091 89.6368 248.078 86.5372 250.135 83.5065C251.178 81.9911 252.241 80.5053 253.352 79.0391L255.035 76.8448L255.911 75.7427L256.354 75.1917L256.58 74.926L256.678 74.7981L256.541 74.9555C256.364 75.1819 256.196 75.4082 256.039 75.6443L269.923 84.7463Z" fill="#D7E3FF"/>
<path opacity="0.7" d="M269.923 84.7463C269.737 85.0225 269.537 85.2885 269.323 85.5434L269.116 85.7795L269.008 85.8976L268.811 86.1043L268.418 86.5274L267.63 87.4031C267.099 87.9837 266.587 88.5839 266.076 89.194C265.052 90.4142 264.068 91.6573 263.124 92.9234C261.194 95.4518 259.397 98.0794 257.741 100.795C254.487 105.809 252.136 111.354 250.794 117.179C250.546 118.478 250.392 119.794 250.332 121.115C250.393 121.772 250.583 122.411 250.892 122.994C252.142 125.639 253.644 128.157 255.38 130.512C257.2 133.11 259.266 135.639 261.382 138.138C262.445 139.398 263.547 140.618 264.659 141.828C265.771 143.039 266.932 144.278 268.014 145.351L257.407 155.604C256.118 154.197 254.976 152.918 253.785 151.57L250.312 147.506C248.009 144.78 245.795 141.946 243.611 138.975C241.239 135.836 239.189 132.467 237.49 128.918C236.994 127.819 236.57 126.688 236.221 125.533C236.016 124.845 235.855 124.145 235.739 123.437C235.663 123.031 235.611 122.62 235.581 122.207C235.542 121.775 235.525 121.342 235.532 120.908C235.556 118.795 235.736 116.687 236.073 114.601C236.755 110.66 237.857 106.804 239.36 103.098C240.775 99.5893 242.418 96.1773 244.28 92.884C246.091 89.6368 248.078 86.5372 250.135 83.5065C251.178 81.9911 252.241 80.5053 253.352 79.0391L255.035 76.8448L255.911 75.7427L256.354 75.1917L256.58 74.926L256.678 74.7981L256.541 74.9555C256.364 75.1819 256.196 75.4082 256.039 75.6443L269.923 84.7463Z" fill="white"/>
<path opacity="0.3" d="M284.191 93.1005C285.224 114.099 290.833 187.328 290.193 224.12L291.906 223.894C291.906 223.894 289.249 167.314 288.048 142.556C286.848 117.799 284.191 93.1005 284.191 93.1005Z" fill="#407BFF"/>
<path opacity="0.3" d="M267.188 145.528L256.678 156.903C256.678 160.721 254.012 168.357 261.077 171.132C268.142 173.907 268.329 153.774 267.188 145.528Z" fill="#407BFF"/>
<path opacity="0.3" d="M301.45 145.174L306.075 156.765C306.213 160.701 307.561 168.573 304.825 171.574C302.09 174.576 301.293 153.705 301.45 145.174Z" fill="#407BFF"/>
<path d="M289.967 100.412L301.509 100.333C301.625 100.338 301.739 100.318 301.846 100.274C301.952 100.231 302.048 100.165 302.127 100.08C302.205 99.9963 302.265 99.8961 302.301 99.7868C302.337 99.6775 302.349 99.5617 302.336 99.4473L301.696 93.9762C301.658 93.7393 301.539 93.5229 301.36 93.3634C301.181 93.2038 300.952 93.111 300.712 93.1005L289.16 93.1693C289.046 93.166 288.932 93.1871 288.826 93.2312C288.72 93.2754 288.625 93.3415 288.547 93.4253C288.469 93.5091 288.409 93.6086 288.372 93.7172C288.336 93.8257 288.322 93.9409 288.334 94.0549L288.973 99.5358C289.014 99.7735 289.134 99.9902 289.315 100.15C289.496 100.309 289.726 100.401 289.967 100.412Z" fill="white" stroke="#407BFF" stroke-width="0.5" stroke-miterlimit="10"/>
</svg>
