<svg width="69" height="69" viewBox="0 0 69 69" fill="none" xmlns="http://www.w3.org/2000/svg">
<path d="M37.7344 60.375V65.7656C37.7344 66.0516 37.848 66.3258 38.0501 66.528C38.2523 66.7302 38.5266 66.8438 38.8125 66.8438H62.5312C62.8172 66.8438 63.0914 66.7302 63.2936 66.528C63.4958 66.3258 63.6094 66.0516 63.6094 65.7656V60.375C63.6094 60.0891 63.4958 59.8148 63.2936 59.6126C63.0914 59.4105 62.8172 59.2969 62.5312 59.2969V46.3594C62.5313 46.2301 62.508 46.1019 62.4627 45.9808L60.2776 40.1541C59.8893 39.1286 59.1988 38.2452 58.2976 37.6206C57.3963 36.996 56.3267 36.6598 55.2302 36.6562H45.2812V29.4579C46.966 30.258 48.8874 30.4058 50.6747 29.8728C51.8012 30.2087 52.9906 30.2769 54.148 30.0718C55.3055 29.8667 56.3991 29.394 57.3415 28.6915C58.284 27.989 59.0494 27.0761 59.5766 26.0254C60.1038 24.9748 60.3783 23.8155 60.3782 22.64C60.3781 21.4645 60.1034 20.3053 59.576 19.2547C59.0486 18.2042 58.2831 17.2914 57.3405 16.589C56.3979 15.8867 55.3043 15.4142 54.1468 15.2093C52.9893 15.0044 51.7999 15.0727 50.6735 15.4088C48.8867 14.8754 46.9655 15.023 45.2812 15.8234V5.39062C45.2803 4.53312 44.9392 3.71103 44.3328 3.10468C43.7265 2.49833 42.9044 2.15725 42.0469 2.15625H20.4844C19.6269 2.15725 18.8048 2.49833 18.1984 3.10468C17.5921 3.71103 17.251 4.53312 17.25 5.39062V29.1094H17.2391C16.3866 29.1062 15.5558 29.378 14.87 29.8845C14.1842 30.391 13.6801 31.1051 13.4324 31.9209L9.75083 43.886C9.73328 43.9433 9.72048 44.0019 9.71256 44.0612L7.68164 59.2969H7.54688C7.26094 59.2969 6.98671 59.4105 6.78453 59.6126C6.58234 59.8148 6.46875 60.0891 6.46875 60.375V65.7656C6.46875 66.0516 6.58234 66.3258 6.78453 66.528C6.98671 66.7302 7.26094 66.8438 7.54688 66.8438H31.2656C31.5516 66.8438 31.8258 66.7302 32.028 66.528C32.2302 66.3258 32.3438 66.0516 32.3438 65.7656V60.375C32.3437 60.1478 32.2719 59.9265 32.1385 59.7426C32.0052 59.5586 31.8172 59.4215 31.6013 59.3508L33.1569 53.9062H34.9525L38.16 59.5186C38.0277 59.6188 37.9205 59.7483 37.8467 59.8968C37.7728 60.0454 37.7344 60.2091 37.7344 60.375ZM61.4531 64.6875H39.8906V61.4531H61.4531V64.6875ZM52.8281 17.25C53.8943 17.25 54.9365 17.5662 55.823 18.1585C56.7095 18.7508 57.4004 19.5927 57.8084 20.5777C58.2164 21.5627 58.3232 22.6466 58.1152 23.6923C57.9072 24.738 57.3938 25.6985 56.6399 26.4524C55.886 27.2063 54.9255 27.7197 53.8798 27.9277C52.8341 28.1357 51.7502 28.0289 50.7652 27.6209C49.7802 27.2129 48.9383 26.522 48.346 25.6355C47.7537 24.749 47.4375 23.7068 47.4375 22.6406C47.4391 21.2114 48.0076 19.8412 49.0182 18.8307C50.0287 17.8201 51.3989 17.2516 52.8281 17.25V17.25ZM47.4463 17.3569C46.0589 18.7656 45.2812 20.6634 45.2812 22.6406C45.2812 24.6178 46.0589 26.5157 47.4463 27.9244C46.2267 27.6778 45.1299 27.017 44.342 26.0539C43.5541 25.0909 43.1237 23.8849 43.1237 22.6406C43.1237 21.3963 43.5541 20.1904 44.342 19.2273C45.1299 18.2643 46.2267 17.6034 47.4463 17.3569ZM30.1875 64.6875H8.625V61.4531H30.1875V64.6875ZM29.3743 59.2969H9.85635L11.8374 44.4345L15.4927 32.5549C15.6262 32.1215 15.9162 31.7533 16.3063 31.5219C16.6963 31.2905 17.1585 31.2125 17.6029 31.303C18.0473 31.3936 18.4422 31.6462 18.7106 32.0117C18.979 32.3773 19.1018 32.8297 19.0552 33.2808L17.2602 46.2111C17.2341 46.4007 17.2588 46.5939 17.3318 46.7708C17.4049 46.9477 17.5236 47.102 17.6759 47.218C17.7255 47.2557 22.6406 51.0437 22.6406 54.9845C22.6406 55.2704 22.7542 55.5447 22.9564 55.7469C23.1586 55.949 23.4328 56.0626 23.7188 56.0626C24.0047 56.0626 24.2789 55.949 24.4811 55.7469C24.6833 55.5447 24.7969 55.2704 24.7969 54.9845C24.7958 54.6235 24.7672 54.2631 24.7113 53.9064H30.9144L29.3743 59.2969ZM34.6024 51.75H24.0728C22.8767 48.9899 20.5162 46.784 19.4796 45.9058L21.1939 33.5612C21.1953 33.5515 21.1965 33.5418 21.1976 33.532C21.2793 32.7976 21.1551 32.055 20.8387 31.3872C20.5223 30.7195 20.0263 30.153 19.4062 29.7511V5.39062C19.4066 5.10479 19.5203 4.83075 19.7224 4.62863C19.9245 4.42651 20.1985 4.31282 20.4844 4.3125H25.2087L25.9889 5.87282C26.0784 6.05188 26.2161 6.20248 26.3864 6.30773C26.5567 6.41299 26.7529 6.46874 26.9531 6.46875H35.5781C35.7783 6.46874 35.9746 6.41299 36.1449 6.30773C36.3152 6.20248 36.4528 6.05188 36.5424 5.87282L37.3225 4.3125H42.0469C42.3327 4.31282 42.6068 4.42651 42.8089 4.62863C43.011 4.83075 43.1247 5.10479 43.125 5.39062V17.3662C41.743 18.7739 40.9687 20.6679 40.9687 22.6406C40.9687 24.6134 41.743 26.5073 43.125 27.9151V36.6562H41.8213L36.3828 25.175C36.049 24.469 35.5052 23.8833 34.8258 23.4982C34.1464 23.113 33.3645 22.9473 32.5873 23.0235C34.1868 21.7845 37.7344 18.4188 37.7344 12.9375C37.7344 12.7513 37.6862 12.5683 37.5944 12.4063C37.5027 12.2443 37.3706 12.1088 37.2109 12.013L31.8203 8.77863C31.6528 8.6781 31.461 8.62499 31.2656 8.62499C31.0702 8.62499 30.8785 8.6781 30.7109 8.77863L25.3203 12.013C25.1615 12.1083 25.0299 12.2429 24.9382 12.4038C24.8466 12.5647 24.7979 12.7465 24.7969 12.9317C24.7953 13.221 24.8261 20.057 30.7131 23.5667C30.7576 23.5931 30.8039 23.6162 30.8518 23.6359C30.1527 24.101 29.6275 24.7845 29.3581 25.5798C29.0887 26.375 29.0904 27.2371 29.3629 28.0312H24.7969C24.5109 28.0312 24.2367 28.1448 24.0345 28.347C23.8323 28.5492 23.7188 28.8234 23.7188 29.1094V37.7344C23.7188 38.0203 23.8323 38.2945 24.0345 38.4967C24.2367 38.6989 24.5109 38.8125 24.7969 38.8125H34.0644L35.0078 40.9688H24.7969C24.5109 40.9688 24.2367 41.0823 24.0345 41.2845C23.8323 41.4867 23.7188 41.7609 23.7188 42.0469V46.3594C23.7188 46.6453 23.8323 46.9195 24.0345 47.1217C24.2367 47.3239 24.5109 47.4375 24.7969 47.4375H35.0337L34.6024 51.75ZM31.2411 21.3413C27.8302 18.9502 27.1322 15.0043 26.9896 13.526L31.2656 10.9604L35.5606 13.5373C35.3113 17.7914 32.4584 20.4105 31.2411 21.3413ZM33.1211 36.6562H25.875V30.1875H30.291L33.1211 36.6562ZM35.2493 45.2812H25.875V43.125H35.4649L35.2493 45.2812ZM36.6852 52.5924L37.729 42.1547C37.7473 41.9707 37.7181 41.785 37.6439 41.6156L31.45 27.457C31.2777 27.0625 31.2675 26.6162 31.4215 26.2142C31.5755 25.8122 31.8813 25.487 32.2731 25.3086C32.6648 25.1302 33.111 25.113 33.5153 25.2607C33.9196 25.4084 34.2496 25.7091 34.4341 26.098L43.2288 44.6647C43.3512 44.9231 43.5712 45.1223 43.8405 45.2185C44.1098 45.3146 44.4063 45.2999 44.6647 45.1775C44.9231 45.0551 45.1223 44.835 45.2185 44.5657C45.3146 44.2964 45.2999 44 45.1775 43.7416L42.842 38.8125H45.6924L48.6288 44.6853C48.6915 44.8131 48.7788 44.9272 48.8857 45.021C48.9927 45.1149 49.1172 45.1866 49.252 45.2321C49.3868 45.2776 49.5293 45.296 49.6712 45.2862C49.8132 45.2764 49.9518 45.2386 50.079 45.1749C50.2063 45.1113 50.3197 45.0231 50.4127 44.9154C50.5057 44.8077 50.5765 44.6827 50.621 44.5475C50.6654 44.4124 50.6827 44.2697 50.6718 44.1279C50.6609 43.986 50.622 43.8477 50.5573 43.7209L48.1038 38.8125H51.0837L54.0201 44.6853C54.0828 44.8131 54.1701 44.9272 54.277 45.021C54.384 45.1149 54.5085 45.1866 54.6433 45.2321C54.7781 45.2776 54.9206 45.296 55.0625 45.2862C55.2045 45.2764 55.3431 45.2386 55.4703 45.1749C55.5976 45.1113 55.711 45.0231 55.804 44.9154C55.897 44.8077 55.9678 44.6827 56.0123 44.5475C56.0567 44.4124 56.074 44.2697 56.0631 44.1279C56.0522 43.986 56.0133 43.8477 55.9486 43.7209L53.4944 38.8125H55.2302C55.8882 38.8145 56.5301 39.0162 57.0709 39.3909C57.6118 39.7656 58.0261 40.2957 58.2592 40.9111L60.375 46.5549V59.2969H40.5162L36.6852 52.5924Z" fill="black"/>
<path d="M50.6719 24.7969C50.6719 25.0828 50.7855 25.357 50.9876 25.5592C51.1898 25.7614 51.4641 25.875 51.75 25.875H52.8281C53.4 25.875 53.9485 25.6478 54.3528 25.2434C54.7572 24.8391 54.9844 24.2906 54.9844 23.7188C54.9844 23.1469 54.7572 22.5984 54.3528 22.1941C53.9485 21.7897 53.4 21.5625 52.8281 21.5625H53.9062C54.1922 21.5625 54.4664 21.4489 54.6686 21.2467C54.8708 21.0445 54.9844 20.7703 54.9844 20.4844C54.9844 20.1984 54.8708 19.9242 54.6686 19.722C54.4664 19.5198 54.1922 19.4062 53.9062 19.4062H52.8281C52.2563 19.4062 51.7078 19.6334 51.3034 20.0378C50.899 20.4422 50.6719 20.9906 50.6719 21.5625C50.6719 22.1344 50.899 22.6828 51.3034 23.0872C51.7078 23.4916 52.2563 23.7188 52.8281 23.7188H51.75C51.4641 23.7188 51.1898 23.8323 50.9876 24.0345C50.7855 24.2367 50.6719 24.5109 50.6719 24.7969Z" fill="black"/>
</svg>
