<svg width="69" height="69" viewBox="0 0 69 69" fill="none" xmlns="http://www.w3.org/2000/svg">
<g clip-path="url(#clip0_60_1799)">
<path d="M18.9883 31.6506L23.4157 36.0053C23.7625 36.3462 24.2146 36.5268 24.679 36.5268C24.8878 36.5268 25.0989 36.4903 25.3043 36.4156C25.9667 36.1745 26.4199 35.589 26.4872 34.8874L27.0796 28.7058C27.0832 28.6666 27.1039 28.6308 27.1358 28.6074C31.2041 25.6346 33.633 20.8557 33.633 15.8238C33.633 11.5555 31.9592 7.55422 28.9197 4.5569C25.8809 1.56012 21.862 -0.0576063 17.5843 0.00182531C13.461 0.0592355 9.57192 1.70917 6.63322 4.64787C3.69452 7.58657 2.04459 11.4758 1.98718 15.5989C1.92775 19.8699 3.54547 23.8955 6.54226 26.9343C9.53958 29.9737 13.541 31.6475 17.8092 31.6475C18.1669 31.6475 18.5287 31.6354 18.8845 31.6115C18.9233 31.6091 18.9602 31.623 18.9883 31.6506V31.6506ZM17.8093 29.6257C14.0863 29.6257 10.5961 28.1657 7.98155 25.5146C5.36764 22.864 3.95664 19.3524 4.00853 15.6267C4.05839 12.0328 5.49836 8.64124 8.06255 6.07692C10.6269 3.5126 14.0184 2.0729 17.6123 2.02277C21.3353 1.97264 24.8496 3.38188 27.5002 5.99593C30.1513 8.61038 31.6114 12.1005 31.6114 15.8236C31.6114 20.2128 29.4923 24.3815 25.9428 26.9752C25.4452 27.339 25.1259 27.8994 25.0671 28.5128L24.5169 34.2532L20.4055 30.2094C20.0005 29.8112 19.4558 29.5895 18.8926 29.5895C18.8449 29.5895 18.7969 29.5911 18.7489 29.5943C18.4383 29.6151 18.122 29.6257 17.8093 29.6257V29.6257Z" fill="black"/>
<path d="M66.8634 52.0265L61.8865 24.1621C61.4964 21.9811 59.6055 20.3981 57.3903 20.3981H54.2344C53.7072 19.4891 52.9866 18.7065 52.1283 18.1067L53.3351 14.7927C53.6588 13.9031 53.1981 12.9156 52.3079 12.5915L50.5836 11.9638L52.4823 6.74688C52.8063 5.85715 52.3485 4.87458 51.4584 4.5506L47.7914 3.21602C46.9014 2.89218 45.9191 3.35011 45.5952 4.2401L43.6964 9.45688L41.9714 8.82901C41.0828 8.50557 40.0965 8.96525 39.7715 9.85484L32.1652 30.7519C31.8417 31.6417 32.302 32.629 33.1913 32.9529L33.4227 33.0371L32.5382 35.4671C32.3758 35.9135 32.3968 36.3964 32.5975 36.827C32.7983 37.2576 33.1548 37.5842 33.6011 37.7466L40.1327 40.1239C40.3313 40.1961 40.537 40.2321 40.7421 40.2321C40.9981 40.2321 41.2535 40.176 41.4926 40.0646C41.9232 39.8638 42.2497 39.5073 42.4122 39.061L43.2971 36.6298L43.5275 36.7136C43.7194 36.7837 43.9182 36.8186 44.1166 36.8186C44.8016 36.8186 45.4702 36.3987 45.7284 35.6883L47.3953 31.111C50.3131 31.3709 52.9975 29.8492 54.3352 27.3839C54.5775 27.5179 54.7421 27.7758 54.7421 28.0718V35.8518C54.7421 36.41 55.1945 36.8626 55.7528 36.8626C56.3111 36.8626 56.7635 36.41 56.7635 35.8518V28.0717C56.7635 26.907 56.0502 25.9061 55.0377 25.4817C55.1416 24.9968 55.1977 24.4946 55.1977 23.9791C55.1977 23.4434 55.1367 22.922 55.0247 22.4196H57.3902C58.6249 22.4196 59.6791 23.302 59.8966 24.5178L64.8735 52.3819C65.2695 54.6004 64.6671 56.8639 63.2202 58.5922C61.7732 60.3204 59.6508 61.3117 57.3971 61.3117C56.4041 61.3117 32.3322 61.3115 31.34 61.3115V53.132C31.7556 53.132 48.3274 53.1316 52.1343 53.1316C54.6869 53.1316 56.7637 51.055 56.7637 48.5024V40.5687C56.7637 40.0105 56.3113 39.558 55.7529 39.558C55.1946 39.558 54.7422 40.0105 54.7422 40.5687V48.5024C54.7422 49.9403 53.5723 51.1101 52.1343 51.1101H50.2606V47.5125C50.2606 46.5836 49.5049 45.828 48.576 45.828H26.7445C25.8156 45.828 25.0599 46.5836 25.0599 47.5125V51.4476C25.0599 52.3765 25.8156 53.1321 26.7445 53.1321H29.3187V61.3116H20.2654C19.3364 61.3116 18.5808 62.0672 18.5808 62.9962V67.3154C18.5808 68.2444 19.3364 69 20.2654 69H27.9707C28.5291 69 28.9815 68.5474 28.9815 67.9892C28.9815 67.431 28.5291 66.9785 27.9707 66.9785H20.6023V63.3328C23.9474 63.3328 51.7212 63.3331 54.7182 63.3331V66.9785H32.6875C32.1292 66.9785 31.6768 67.431 31.6768 67.9892C31.6768 68.5474 32.1292 69 32.6875 69H55.0553C55.9842 69 56.7398 68.2444 56.7398 67.3154V63.3331H57.3972C60.2507 63.3331 62.9381 62.078 64.7702 59.8897C66.6021 57.7016 67.365 54.8356 66.8634 52.0265V52.0265ZM47.3894 5.22093L50.4774 6.34474L48.6838 11.2723L45.5959 10.1482L47.3894 5.22093ZM40.5959 38.1411L34.5209 35.93L35.3223 33.728L41.3976 35.9385L40.5959 38.1411ZM43.9335 34.7099C42.1641 34.0662 35.3721 31.595 34.1687 31.1573L41.5667 10.8328C42.4714 11.1622 51.3313 14.3873 51.3313 14.3873L50.3107 17.1899C49.5955 16.9496 48.8311 16.8174 48.0359 16.8174C44.0868 16.8174 40.874 20.0302 40.874 23.9792C40.874 27.0032 42.759 29.5937 45.4148 30.6422L43.9335 34.7099ZM48.036 29.1196C45.2016 29.1196 42.8956 26.8136 42.8956 23.9792C42.8956 21.1448 45.2015 18.8389 48.036 18.8389C50.8705 18.8389 53.1765 21.1448 53.1765 23.9792C53.1765 26.8136 50.8704 29.1196 48.036 29.1196V29.1196ZM27.0814 47.8492H48.2391V51.1098C48.123 51.1098 30.4077 51.1102 27.0814 51.1102V47.8492Z" fill="black"/>
<path d="M48.0359 20.918C46.3481 20.918 44.9749 22.2911 44.9749 23.979C44.9749 25.667 46.348 27.0401 48.0359 27.0401C49.7239 27.0401 51.0971 25.667 51.0971 23.979C51.0971 22.2911 49.7239 20.918 48.0359 20.918ZM48.0359 25.0188C47.4626 25.0188 46.9963 24.5525 46.9963 23.9792C46.9963 23.4059 47.4626 22.9396 48.0359 22.9396C48.6092 22.9396 49.0756 23.4059 49.0756 23.9792C49.0756 24.5525 48.6092 25.0188 48.0359 25.0188Z" fill="black"/>
<path d="M24.0923 14.8426C25.8328 14.8426 27.2488 13.4266 27.2488 11.6861C27.2488 9.94565 25.8328 8.52966 24.0923 8.52966C22.3518 8.52966 20.9358 9.94565 20.9358 11.6861C20.9358 13.4266 22.3518 14.8426 24.0923 14.8426ZM24.0923 10.5511C24.7181 10.5511 25.2273 11.0603 25.2273 11.6861C25.2273 12.312 24.7181 12.8211 24.0923 12.8211C23.4664 12.8211 22.9573 12.312 22.9573 11.6861C22.9573 11.0603 23.4664 10.5511 24.0923 10.5511Z" fill="black"/>
<path d="M10.5674 12.5259C8.82687 12.5259 7.41089 13.9419 7.41089 15.6824C7.41089 17.4229 8.82687 18.8388 10.5674 18.8388C12.3079 18.8388 13.724 17.4229 13.724 15.6824C13.724 13.9419 12.3079 12.5259 10.5674 12.5259ZM10.5674 16.8174C9.94152 16.8174 9.43237 16.3082 9.43237 15.6824C9.43237 15.0565 9.94152 14.5474 10.5674 14.5474C11.1934 14.5474 11.7025 15.0565 11.7025 15.6824C11.7025 16.3082 11.1934 16.8174 10.5674 16.8174Z" fill="black"/>
<path d="M26.1259 19.1548L24.5862 20.6944C24.1913 21.0891 24.1913 21.729 24.5861 22.1237C24.7835 22.3211 25.0421 22.4198 25.3009 22.4198C25.5595 22.4198 25.8182 22.3211 26.0155 22.1237L27.5552 20.5841C27.9501 20.1894 27.9501 19.5495 27.5554 19.1548C27.1606 18.7601 26.5205 18.7601 26.1259 19.1548Z" fill="black"/>
<path d="M16.094 6.86104C15.6994 6.46617 15.0594 6.46631 14.6647 6.86104L13.1251 8.4006C12.7304 8.79533 12.7304 9.43533 13.1253 9.82993C13.3226 10.0274 13.5813 10.126 13.8399 10.126C14.0985 10.126 14.3573 10.0274 14.5547 9.82993L16.0943 8.29036C16.4889 7.89563 16.4889 7.25577 16.094 6.86104V6.86104Z" fill="black"/>
<path d="M19.2939 15.2917L17.7543 13.7521C17.3596 13.3574 16.7196 13.3574 16.325 13.7521C15.9301 14.1468 15.9301 14.7867 16.3248 15.1814L17.8644 16.721C18.0618 16.9184 18.3204 17.0171 18.5792 17.0171C18.8378 17.0171 19.0966 16.9184 19.2939 16.721C19.6886 16.3264 19.6886 15.6864 19.2939 15.2917Z" fill="black"/>
<path d="M16.4838 21.8136L14.9442 23.3531C14.5495 23.7478 14.5495 24.3878 14.9444 24.7824C15.1417 24.9799 15.4004 25.0785 15.659 25.0785C15.9176 25.0785 16.1764 24.9799 16.3738 24.7824L17.9134 23.2429C18.3081 22.8481 18.3081 22.2081 17.9133 21.8136C17.5185 21.4187 16.8785 21.4188 16.4838 21.8136Z" fill="black"/>
</g>
<defs>
<clipPath id="clip0_60_1799">
<rect width="69" height="69" fill="white"/>
</clipPath>
</defs>
</svg>
